<?xml version="1.0" encoding="UTF-8"?> <svg xmlns="http://www.w3.org/2000/svg" width="934" height="422" viewBox="0 0 934 422" fill="none"><path d="M488.094 360.237C611.216 342.897 720.376 310.591 797.339 272.348C835.815 253.229 866.296 232.601 886.447 211.574C906.587 190.558 916.528 169.01 913.573 148.107C910.618 127.204 895.092 109.242 869.911 94.6092C844.718 79.9686 809.708 68.5634 767.434 60.8168C682.875 45.3215 569.021 44.4235 445.899 61.7632C322.777 79.1029 213.617 111.409 136.655 149.652C98.179 168.771 67.698 189.399 47.5472 210.426C27.4066 231.442 17.4655 252.99 20.4205 273.893C23.3756 294.796 38.9022 312.757 64.0826 327.391C89.2756 342.031 124.285 353.436 166.559 361.183C251.119 376.678 364.973 377.576 488.094 360.237Z" fill="#A9FF3C" stroke="black" stroke-width="2"></path><path d="M468.759 361.414C593.09 359.866 705.484 341.699 786.699 313.551C827.301 299.478 860.166 282.892 882.836 264.598C905.494 246.314 918.104 226.204 917.84 205.096C917.576 183.988 904.468 164.199 881.36 146.484C858.24 128.76 824.971 112.998 784.029 99.9406C702.136 73.8228 589.323 58.4597 464.992 60.0078C340.66 61.5558 228.267 79.7229 147.051 107.871C106.449 121.944 73.5839 138.53 50.9143 156.824C28.256 175.108 15.6464 195.218 15.9102 216.326C16.174 237.434 29.2823 257.223 52.3905 274.938C75.5103 292.662 108.78 308.424 149.721 321.482C231.614 347.599 344.427 362.962 468.759 361.414Z" fill="white" stroke="black" stroke-width="2"></path></svg> 