<?xml version="1.0" encoding="UTF-8"?> <svg xmlns="http://www.w3.org/2000/svg" width="56" height="56" viewBox="0 0 56 56" fill="none"><path d="M28 56C33.6146 56 38.0625 51.4792 38.0625 45.9375C38.0625 42.1458 36.6042 39.0104 33.6146 36.6042C30.625 34.1979 29.1667 32.0104 29.1667 30.3333V29.0208H30.3333C31.6458 29.0208 33.0312 29.75 34.6354 31.5C38.5729 35.8021 41.3437 38.0625 45.9375 38.0625C51.4792 38.0625 56 33.5417 56 28C56 22.3854 51.4792 17.9375 45.9375 17.9375C42.2187 17.9375 39.0833 19.3958 36.6042 22.3854C34.125 25.3021 32.0104 26.8333 30.3333 26.8333H29.1667V25.6667C29.1667 23.9896 30.6979 21.9479 33.6146 19.3958C36.5312 16.8437 38.0625 13.7812 38.0625 10.0625C38.0625 4.59375 33.5417 0 28 0C22.3854 0 17.9375 4.52083 17.9375 10.0625C17.9375 14.5833 20.3437 17.5729 22.8229 19.8333L24.5 21.3646C26.25 22.9687 26.9792 24.3542 26.9792 25.6667V26.8333H25.6667C24.0625 26.8333 21.9479 25.3021 19.3958 22.3854C16.8437 19.4687 13.7812 17.9375 10.0625 17.9375C4.52083 17.9375 0 22.4583 0 28C0 33.5417 4.52083 38.0625 10.0625 38.0625C13.7083 38.0625 16.8437 36.6042 19.4687 33.5417C22.0937 30.5521 24.1354 29.0208 25.6667 29.0208H26.9792V30.3333C26.9792 31.6458 26.25 33.0312 24.5 34.6354C19.9792 38.7917 17.9375 41.2708 17.9375 45.9375C17.9375 51.4792 22.4583 56 28 56Z" fill="#FF612F"></path></svg> 