<svg id="Layer_1" data-name="Layer 1" xmlns="http://www.w3.org/2000/svg" viewBox="0 0 620.44 529.61"><defs><style>.cls-1{fill:#fff;stroke:#1d1d1b;stroke-miterlimit:10;stroke-width:0.7px;}</style></defs><line class="cls-1" x1="64" y1="17.61" x2="64" y2="529.61"/><line class="cls-1" x1="112" x2="112" y2="529.61"/><line class="cls-1" x1="209.78" x2="209.78" y2="529.61"/><line class="cls-1" x1="309.33" x2="309.33" y2="529.61"/><line class="cls-1" x1="408.89" x2="408.89" y2="529.61"/><line class="cls-1" x1="508.44" x2="508.44" y2="529.61"/><line class="cls-1" x1="608" x2="608" y2="529.61"/><line class="cls-1" x1="161.22" x2="161.22" y2="529.61"/><line class="cls-1" x1="259.89" x2="259.89" y2="529.61"/><line class="cls-1" x1="358.56" x2="358.56" y2="529.61"/><line class="cls-1" x1="457.22" x2="457.22" y2="529.61"/><line class="cls-1" x1="557.67" x2="557.67" y2="529.61"/><line class="cls-1" x1="20.58" y1="48.89" x2="620.44" y2="48.89"/><line class="cls-1" y1="96" x2="620.44" y2="96"/><line class="cls-1" y1="144" x2="620.44" y2="144"/><line class="cls-1" y1="191.11" x2="620.44" y2="191.11"/><line class="cls-1" y1="288" x2="620.44" y2="288"/><line class="cls-1" y1="384.89" x2="620.44" y2="384.89"/><line class="cls-1" x1="17.92" y1="481.78" x2="620.44" y2="481.78"/><line class="cls-1" y1="239.11" x2="620.44" y2="239.11"/><line class="cls-1" y1="334.22" x2="620.44" y2="334.22"/><line class="cls-1" y1="429.33" x2="620.44" y2="429.33"/></svg>