<?xml version="1.0" encoding="UTF-8"?> <svg xmlns="http://www.w3.org/2000/svg" width="57" height="57" viewBox="0 0 57 57" fill="none"><path fill-rule="evenodd" clip-rule="evenodd" d="M35.6347 20.1662C38.0206 18.0539 39.5247 14.968 39.5247 11.5309C39.5247 5.16335 34.3628 0.00146484 27.9953 0.00146484C21.6278 0.00146484 16.4659 5.16335 16.4659 11.5309C16.4659 15.2352 18.2129 18.5314 20.9278 20.6408C20.8292 20.7358 20.7323 20.8326 20.6373 20.9312C18.5279 18.2177 15.2325 16.4718 11.5294 16.4718C5.16189 16.4718 0 21.6337 0 28.0012C0 34.3687 5.16189 39.5306 11.5294 39.5306C14.9651 39.5306 18.0497 38.0279 20.162 35.6438C20.2208 35.7132 20.2805 35.7819 20.341 35.8499C17.9637 37.9619 16.4659 41.0421 16.4659 44.4721C16.4659 50.8396 21.6278 56.0015 27.9953 56.0015C34.3628 56.0015 39.5247 50.8396 39.5247 44.4721C39.5247 41.3277 38.2659 38.4773 36.2248 36.3973C36.2828 36.3406 36.3401 36.2833 36.3967 36.2253C38.4772 38.2696 41.3299 39.5306 44.4771 39.5306C50.8446 39.5306 56.0065 34.3687 56.0065 28.0012C56.0065 21.6337 50.8446 16.4718 44.4771 16.4718C41.0442 16.4718 37.9617 17.9722 35.8496 20.3529C35.7788 20.2898 35.7072 20.2275 35.6347 20.1662Z" fill="#A9FF3C"></path></svg> 