<svg width="267" height="231" viewBox="0 0 267 231" fill="none" xmlns="http://www.w3.org/2000/svg">
<g clip-path="url(#clip0_3_2)">
<path d="M266 94.5C266 42.86 206.68 1 133.5 1C60.32 1 1 42.86 1 94.5C1 146.14 60.32 188 133.5 188C141.814 188.003 150.119 187.452 158.36 186.35L225 228L197.85 176.24C238.5 160.28 266 129.66 266 94.5Z" fill="white" stroke="#1D1D1B" stroke-width="2" stroke-miterlimit="10"/>
<path d="M98.5429 36.422H99.6909V49.106H98.5429V36.422ZM95.8129 41.042H98.8789V41.994H95.8129V41.042ZM92.4949 38.242H93.4329V40.132C93.4329 42.862 91.8649 45.564 89.8629 46.6L89.1769 45.676C90.9969 44.78 92.4949 42.386 92.4949 40.132V38.242ZM92.7329 38.242H93.6569V40.132C93.6569 42.246 95.1269 44.556 96.9609 45.424L96.2749 46.334C94.2729 45.34 92.7329 42.736 92.7329 40.132V38.242ZM89.6389 37.724H96.5269V38.69H89.6389V37.724ZM103.708 40.23H112.304V41.182H103.708V40.23ZM102.154 42.876H113.634V43.828H102.154V42.876ZM103.708 36.898H104.856V40.706H103.708V36.898ZM103.624 47.832H112.374V48.784H103.624V47.832ZM103.624 45.088H104.772V48.084H103.624V45.088ZM122.719 48.1392C122.301 48.1326 121.884 48.053 121.466 47.9006C121.048 47.7481 120.667 47.4912 120.323 47.13C119.978 46.7654 119.701 46.2732 119.492 45.6534C119.283 45.0303 119.179 44.2481 119.179 43.3068C119.179 42.4053 119.264 41.6065 119.433 40.9105C119.602 40.2112 119.847 39.6229 120.168 39.1456C120.49 38.665 120.878 38.3004 121.332 38.0518C121.789 37.8033 122.305 37.679 122.878 37.679C123.448 37.679 123.955 37.7933 124.399 38.022C124.847 38.2474 125.211 38.5623 125.493 38.9666C125.775 39.371 125.957 39.8366 126.04 40.3636H124.827C124.714 39.9062 124.495 39.5268 124.171 39.2251C123.846 38.9235 123.415 38.7727 122.878 38.7727C122.089 38.7727 121.468 39.1158 121.014 39.8018C120.563 40.4879 120.336 41.4508 120.332 42.6903H120.412C120.598 42.4086 120.818 42.1683 121.073 41.9695C121.332 41.7673 121.617 41.6115 121.928 41.5021C122.24 41.3928 122.57 41.3381 122.918 41.3381C123.501 41.3381 124.035 41.4839 124.519 41.7756C125.002 42.0639 125.39 42.4633 125.682 42.9737C125.974 43.4808 126.119 44.0625 126.119 44.7188C126.119 45.3485 125.979 45.9252 125.697 46.4489C125.415 46.9692 125.019 47.3835 124.509 47.6918C124.002 47.9967 123.405 48.1458 122.719 48.1392ZM122.719 47.0455C123.136 47.0455 123.511 46.9411 123.842 46.7322C124.177 46.5234 124.441 46.2434 124.633 45.892C124.828 45.5407 124.926 45.1496 124.926 44.7188C124.926 44.2978 124.832 43.915 124.643 43.5703C124.457 43.2223 124.2 42.9455 123.872 42.7401C123.547 42.5346 123.176 42.4318 122.759 42.4318C122.444 42.4318 122.15 42.4948 121.879 42.6207C121.607 42.7434 121.368 42.9124 121.163 43.1278C120.961 43.3433 120.801 43.5902 120.685 43.8686C120.569 44.1437 120.511 44.4337 120.511 44.7386C120.511 45.143 120.606 45.5208 120.795 45.8722C120.987 46.2235 121.249 46.5069 121.58 46.7223C121.915 46.9377 122.295 47.0455 122.719 47.0455ZM130.801 36.856H131.753V37.864C131.753 40.244 130.367 42.148 128.211 42.904L127.637 41.966C129.555 41.336 130.801 39.74 130.801 37.864V36.856ZM131.011 36.856H131.949V37.836C131.949 39.544 133.195 41.028 135.057 41.616L134.455 42.526C132.383 41.812 131.011 40.048 131.011 37.836V36.856ZM136.373 36.436H137.535V43.03H136.373V36.436ZM137.031 39.194H139.397V40.16H137.031V39.194ZM129.499 43.618H137.535V46.656H130.675V48.546H129.527V45.774H136.401V44.542H129.499V43.618ZM129.527 48.028H137.997V48.952H129.527V48.028ZM147.837 36.702H148.915V48.462H147.837V36.702ZM148.467 41.588H150.805V42.54H148.467V41.588ZM140.963 44.836H141.467C141.957 44.836 142.783 44.822 143.763 44.584L143.861 45.55C142.811 45.802 141.999 45.802 141.467 45.802H140.963V44.836ZM140.963 38.018H143.665V38.97H142.041V45.382H140.963V38.018ZM144.211 44.836H144.743C145.415 44.836 146.297 44.808 147.263 44.542L147.375 45.508C146.339 45.788 145.471 45.802 144.743 45.802H144.211V44.836ZM144.211 38.018H146.997V38.97H145.275V45.34H144.211V38.018ZM150.399 36.436H151.505V49.092H150.399V36.436ZM157.402 43.926H168.882V44.878H157.402V43.926ZM162.526 44.374H163.674V49.092H162.526V44.374ZM158.844 36.94H160.006V38.676H166.264V36.94H167.412V42.414H158.844V36.94ZM160.006 39.614V41.476H166.264V39.614H160.006ZM179.563 36.422H180.711V49.106H179.563V36.422ZM176.931 41.196H179.731V42.162H176.931V41.196ZM170.869 45.102H171.835C174.215 45.102 175.713 45.06 177.491 44.724L177.603 45.676C175.783 45.998 174.243 46.068 171.835 46.068H170.869V45.102ZM170.869 37.584H176.721V38.55H172.017V45.438H170.869V37.584ZM171.723 41.14H176.175V42.078H171.723V41.14ZM70.6718 58.436H71.8338V71.092H70.6718V58.436ZM61.7678 59.794H68.9358V60.746H61.7678V59.794ZM61.5718 67.97L61.4318 66.976C63.7838 66.976 66.8918 66.948 69.5798 66.626L69.6498 67.48C66.9198 67.914 63.8818 67.956 61.5718 67.97ZM63.1678 60.508H64.2878V67.242H63.1678V60.508ZM66.4018 60.508H67.5358V67.242H66.4018V60.508ZM77.6987 59.402C79.5607 59.402 80.8767 61.124 80.8767 63.812C80.8767 66.514 79.5607 68.236 77.6987 68.236C75.8367 68.236 74.5207 66.514 74.5207 63.812C74.5207 61.124 75.8367 59.402 77.6987 59.402ZM77.6987 60.452C76.4667 60.452 75.6267 61.768 75.6267 63.812C75.6267 65.87 76.4667 67.214 77.6987 67.214C78.9167 67.214 79.7707 65.87 79.7707 63.812C79.7707 61.768 78.9167 60.452 77.6987 60.452ZM82.8927 58.436H84.0687V71.092H82.8927V58.436ZM83.7887 63.49H86.1407V64.47H83.7887V63.49ZM88.6176 64.176H97.3816V65.128H88.6176V64.176ZM87.2176 68.502H98.6836V69.468H87.2176V68.502ZM92.3556 64.764H93.5036V68.81H92.3556V64.764ZM88.6176 59.5H89.7796V64.596H88.6176V59.5ZM100.082 64.316H111.562V65.198H100.082V64.316ZM101.44 66.22H110.12V68.922H102.63V70.406H101.482V68.124H108.986V67.046H101.44V66.22ZM101.482 70.098H110.526V70.938H101.482V70.098ZM101.538 58.8H110.078V61.432H102.714V62.804H101.566V60.648H108.944V59.626H101.538V58.8ZM101.566 62.524H110.316V63.364H101.566V62.524ZM117.361 59.626H118.467V62.72H121.113V59.626H122.191V67.928H117.361V59.626ZM118.467 63.658V66.976H121.113V63.658H118.467ZM126.545 58.436H127.665V71.092H126.545V58.436ZM124.515 63.448H126.951V64.4H124.515V63.448ZM123.745 58.702H124.851V70.462H123.745V58.702ZM133.18 63.868H134.328V66.374H133.18V63.868ZM138.99 58.45H140.152V66.458H138.99V58.45ZM129.862 64.428L129.708 63.49C132.032 63.49 135.182 63.462 137.87 63.07L137.954 63.896C135.224 64.372 132.13 64.414 129.862 64.428ZM136.442 64.834H139.326V65.674H136.442V64.834ZM133.838 58.73C135.714 58.73 136.946 59.486 136.946 60.718C136.946 61.95 135.714 62.706 133.838 62.706C131.948 62.706 130.716 61.95 130.716 60.718C130.716 59.486 131.948 58.73 133.838 58.73ZM133.838 59.584C132.592 59.584 131.794 60.018 131.794 60.718C131.794 61.432 132.592 61.866 133.838 61.866C135.056 61.866 135.854 61.432 135.854 60.718C135.854 60.018 135.056 59.584 133.838 59.584ZM132.942 66.892H133.824V67.13C133.824 68.796 132.774 70.322 130.926 70.938L130.38 70.07C131.976 69.58 132.942 68.348 132.942 67.13V66.892ZM133.194 66.892H134.048V67.13C134.048 68.278 134.818 69.608 136.302 70.168L135.826 71.05C134.02 70.378 133.194 68.684 133.194 67.13V66.892ZM137.604 66.892H138.458V67.13C138.458 68.67 137.632 70.364 135.826 71.05L135.35 70.168C136.848 69.58 137.604 68.264 137.604 67.13V66.892ZM137.842 66.892H138.738V67.13C138.738 68.376 139.69 69.594 141.3 70.07L140.754 70.938C138.892 70.336 137.842 68.824 137.842 67.13V66.892ZM144.211 62.23H152.807V63.182H144.211V62.23ZM142.657 64.876H154.137V65.828H142.657V64.876ZM144.211 58.898H145.359V62.706H144.211V58.898ZM144.127 69.832H152.877V70.784H144.127V69.832ZM144.127 67.088H145.275V70.084H144.127V67.088ZM165.168 58.436H166.288V71.092H165.168V58.436ZM159.918 63.266H163.096V64.218H159.918V63.266ZM162.62 58.73H163.726V70.448H162.62V58.73ZM156.012 67.074H156.824C158.798 67.074 159.988 67.018 161.388 66.724L161.5 67.69C160.058 67.998 158.84 68.054 156.824 68.054H156.012V67.074ZM156.012 59.976H160.772V60.928H157.16V67.452H156.012V59.976ZM181.578 58.436H182.74V71.092H181.578V58.436ZM172.674 59.794H179.842V60.746H172.674V59.794ZM172.478 67.97L172.338 66.976C174.69 66.976 177.798 66.948 180.486 66.626L180.556 67.48C177.826 67.914 174.788 67.956 172.478 67.97ZM174.074 60.508H175.194V67.242H174.074V60.508ZM177.308 60.508H178.442V67.242H177.308V60.508ZM188.605 59.402C190.467 59.402 191.783 61.124 191.783 63.812C191.783 66.514 190.467 68.236 188.605 68.236C186.743 68.236 185.427 66.514 185.427 63.812C185.427 61.124 186.743 59.402 188.605 59.402ZM188.605 60.452C187.373 60.452 186.533 61.768 186.533 63.812C186.533 65.87 187.373 67.214 188.605 67.214C189.823 67.214 190.677 65.87 190.677 63.812C190.677 61.768 189.823 60.452 188.605 60.452ZM193.799 58.436H194.975V71.092H193.799V58.436ZM194.695 63.49H197.047V64.47H194.695V63.49ZM199.524 64.176H208.288V65.128H199.524V64.176ZM198.124 68.502H209.59V69.468H198.124V68.502ZM203.262 64.764H204.41V68.81H203.262V64.764ZM199.524 59.5H200.686V64.596H199.524V59.5ZM83.5572 80.436H84.7192V93.092H83.5572V80.436ZM77.8592 83.446H78.7972V84.524C78.7972 87.226 77.2712 89.676 75.2412 90.656L74.5832 89.76C76.4592 88.892 77.8592 86.736 77.8592 84.524V83.446ZM78.0832 83.446H79.0072V84.524C79.0072 86.638 80.4492 88.696 82.3392 89.522L81.6812 90.432C79.6372 89.508 78.0832 87.142 78.0832 84.524V83.446ZM74.9332 82.634H81.9052V83.572H74.9332V82.634ZM77.8592 80.66H79.0212V83.152H77.8592V80.66ZM88.7781 84.23H97.3741V85.182H88.7781V84.23ZM87.2241 86.876H98.7041V87.828H87.2241V86.876ZM88.7781 80.898H89.9261V84.706H88.7781V80.898ZM88.6941 91.832H97.4441V92.784H88.6941V91.832ZM88.6941 89.088H89.8421V92.084H88.6941V89.088ZM109.357 80.436H110.519V86.918H109.357V80.436ZM106.613 83.474H109.539V84.412H106.613V83.474ZM105.297 81.052H106.515C106.515 84.202 104.331 86.26 100.705 87.184L100.299 86.246C103.505 85.462 105.297 83.796 105.297 81.57V81.052ZM100.971 81.052H106.235V81.99H100.971V81.052ZM102.371 87.464H110.519V90.586H103.561V92.588H102.413V89.69H109.371V88.402H102.371V87.464ZM102.413 92.042H110.939V92.966H102.413V92.042ZM123.681 83.712H126.537V84.678H123.681V83.712ZM126.173 80.436H127.335V87.982H126.173V80.436ZM123.177 88.36C125.781 88.36 127.391 89.242 127.391 90.726C127.391 92.224 125.781 93.078 123.177 93.078C120.559 93.078 118.949 92.224 118.949 90.726C118.949 89.242 120.559 88.36 123.177 88.36ZM123.177 89.27C121.273 89.27 120.111 89.802 120.111 90.726C120.111 91.636 121.273 92.168 123.177 92.168C125.081 92.168 126.243 91.636 126.243 90.726C126.243 89.802 125.081 89.27 123.177 89.27ZM120.153 81.71H121.105V82.732C121.105 85.07 119.677 87.072 117.577 87.856L116.975 86.932C118.851 86.246 120.153 84.552 120.153 82.732V81.71ZM120.377 81.71H121.315V82.732C121.315 84.37 122.547 85.938 124.381 86.582L123.793 87.506C121.735 86.764 120.377 84.86 120.377 82.732V81.71ZM117.325 81.36H124.087V82.312H117.325V81.36ZM138.464 80.436H139.626V86.876H138.464V80.436ZM139.122 83.152H141.488V84.118H139.122V83.152ZM130.33 81.15H136.14V86.218H130.33V81.15ZM135.006 82.074H131.464V85.294H135.006V82.074ZM131.59 87.478H139.626V90.586H132.766V92.476H131.618V89.704H138.492V88.402H131.59V87.478ZM131.618 91.986H140.088V92.924H131.618V91.986ZM151.753 84.188H152.901V86.12H151.753V84.188ZM151.585 81.206H152.607V81.598C152.607 83.502 150.255 84.72 147.595 84.972L147.217 84.09C149.499 83.908 151.585 82.928 151.585 81.598V81.206ZM152.089 81.206H153.097V81.598C153.097 82.914 155.183 83.908 157.465 84.09L157.087 84.972C154.441 84.72 152.089 83.502 152.089 81.598V81.206ZM147.665 80.828H157.031V81.738H147.665V80.828ZM147.679 88.29H157.003V89.214H147.679V88.29ZM146.615 85.686H158.095V86.624H146.615V85.686ZM152.341 89.83C154.777 89.83 156.135 90.404 156.135 91.496C156.135 92.602 154.777 93.162 152.341 93.162C149.905 93.162 148.533 92.602 148.533 91.496C148.533 90.404 149.905 89.83 152.341 89.83ZM152.341 90.628C150.661 90.628 149.723 90.922 149.723 91.496C149.723 92.07 150.661 92.364 152.341 92.364C154.007 92.364 154.959 92.07 154.959 91.496C154.959 90.922 154.007 90.628 152.341 90.628ZM151.767 87.128H152.915V88.878H151.767V87.128ZM162.868 81.402C164.73 81.402 166.046 83.124 166.046 85.812C166.046 88.514 164.73 90.236 162.868 90.236C161.006 90.236 159.69 88.514 159.69 85.812C159.69 83.124 161.006 81.402 162.868 81.402ZM162.868 82.452C161.636 82.452 160.796 83.768 160.796 85.812C160.796 87.87 161.636 89.214 162.868 89.214C164.086 89.214 164.94 87.87 164.94 85.812C164.94 83.768 164.086 82.452 162.868 82.452ZM168.062 80.436H169.238V93.092H168.062V80.436ZM168.958 85.49H171.31V86.47H168.958V85.49ZM172.359 82.592H178.631V83.544H172.359V82.592ZM175.495 84.384C177.077 84.384 178.225 85.574 178.225 87.282C178.225 88.976 177.077 90.166 175.495 90.166C173.927 90.166 172.779 88.976 172.779 87.282C172.779 85.574 173.927 84.384 175.495 84.384ZM175.495 85.378C174.529 85.378 173.829 86.162 173.829 87.282C173.829 88.402 174.529 89.186 175.495 89.186C176.475 89.186 177.189 88.402 177.189 87.282C177.189 86.162 176.475 85.378 175.495 85.378ZM181.977 80.436H183.097V93.092H181.977V80.436ZM179.961 85.756H182.355V86.722H179.961V85.756ZM179.275 80.716H180.367V92.476H179.275V80.716ZM174.935 80.8H176.083V83.18H174.935V80.8ZM188.065 86.946H189.213V90.74H188.065V86.946ZM192.741 86.946H193.903V90.74H192.741V86.946ZM185.265 90.516H196.731V91.482H185.265V90.516ZM190.977 81.234C193.651 81.234 195.569 82.508 195.569 84.496C195.569 86.47 193.651 87.744 190.977 87.744C188.289 87.744 186.371 86.47 186.371 84.496C186.371 82.508 188.289 81.234 190.977 81.234ZM190.977 82.158C188.947 82.158 187.491 83.082 187.491 84.496C187.491 85.896 188.947 86.82 190.977 86.82C193.007 86.82 194.449 85.896 194.449 84.496C194.449 83.082 193.007 82.158 190.977 82.158ZM200.069 81.8182L199.97 89.1364H198.816L198.717 81.8182H200.069ZM199.393 92.0795C199.148 92.0795 198.937 91.9917 198.762 91.8161C198.586 91.6404 198.498 91.4299 198.498 91.1847C198.498 90.9394 198.586 90.7289 198.762 90.5533C198.937 90.3776 199.148 90.2898 199.393 90.2898C199.638 90.2898 199.849 90.3776 200.025 90.5533C200.2 90.7289 200.288 90.9394 200.288 91.1847C200.288 91.3471 200.247 91.4962 200.164 91.6321C200.084 91.768 199.977 91.8774 199.841 91.9602C199.708 92.0398 199.559 92.0795 199.393 92.0795ZM64.8338 103.402C66.6678 103.402 67.9838 105.124 67.9838 107.812C67.9838 110.514 66.6678 112.236 64.8338 112.236C62.9858 112.236 61.6838 110.514 61.6838 107.812C61.6838 105.124 62.9858 103.402 64.8338 103.402ZM64.8338 104.452C63.6158 104.452 62.7898 105.768 62.7898 107.812C62.7898 109.87 63.6158 111.214 64.8338 111.214C66.0518 111.214 66.8778 109.87 66.8778 107.812C66.8778 105.768 66.0518 104.452 64.8338 104.452ZM70.7278 102.422H71.8758V115.106H70.7278V102.422ZM67.6058 107.252H71.2318V108.204H67.6058V107.252ZM74.8567 108.484H75.7667C78.2167 108.484 79.4627 108.456 81.0027 108.19L81.1287 109.128C79.5327 109.408 78.2587 109.436 75.7667 109.436H74.8567V108.484ZM74.8287 103.08H80.2887V106.65H76.0047V109.198H74.8567V105.74H79.1407V104.032H74.8287V103.08ZM83.5787 102.45H84.7407V110.024H83.5787V102.45ZM81.1287 104.2H83.8587V105.138H81.1287V104.2ZM81.1287 106.832H83.8587V107.784H81.1287V106.832ZM77.5167 110.36H78.4267V111.06C78.4267 112.726 77.3907 114.42 75.5567 115.12L74.9827 114.252C76.5787 113.664 77.5167 112.292 77.5167 111.06V110.36ZM77.7827 110.36H78.6367V111.06C78.6367 112.348 79.3927 113.72 80.9187 114.35L80.4147 115.218C78.5947 114.504 77.7827 112.754 77.7827 111.06V110.36ZM82.1927 110.36H83.0607V111.06C83.0607 112.572 82.2207 114.462 80.4147 115.218L79.9247 114.35C81.4367 113.664 82.1927 112.166 82.1927 111.06V110.36ZM82.4307 110.36H83.3267V111.06C83.3267 112.376 84.2647 113.706 85.8747 114.252L85.2867 115.12C83.4387 114.448 82.4307 112.824 82.4307 111.06V110.36ZM92.9296 102.646C95.7156 102.646 97.3816 103.43 97.3816 104.844C97.3816 106.258 95.7156 107.042 92.9296 107.042C90.1296 107.042 88.4776 106.258 88.4776 104.844C88.4776 103.43 90.1296 102.646 92.9296 102.646ZM92.9296 103.528C90.8576 103.528 89.6676 104.004 89.6676 104.844C89.6676 105.684 90.8576 106.16 92.9296 106.16C94.9876 106.16 96.1776 105.684 96.1776 104.844C96.1776 104.004 94.9876 103.528 92.9296 103.528ZM87.2036 107.882H98.6416V108.82H87.2036V107.882ZM88.5896 109.898H97.1856V112.754H89.7656V114.294H88.6176V111.914H96.0376V110.794H88.5896V109.898ZM88.6176 114.042H97.5636V114.952H88.6176V114.042ZM107.334 102.702H108.412V114.462H107.334V102.702ZM107.964 107.588H110.302V108.54H107.964V107.588ZM100.46 110.836H100.964C101.454 110.836 102.28 110.822 103.26 110.584L103.358 111.55C102.308 111.802 101.496 111.802 100.964 111.802H100.46V110.836ZM100.46 104.018H103.162V104.97H101.538V111.382H100.46V104.018ZM103.708 110.836H104.24C104.912 110.836 105.794 110.808 106.76 110.542L106.872 111.508C105.836 111.788 104.968 111.802 104.24 111.802H103.708V110.836ZM103.708 104.018H106.494V104.97H104.772V111.34H103.708V104.018ZM109.896 102.436H111.002V115.092H109.896V102.436ZM114.515 106.23H123.111V107.182H114.515V106.23ZM112.961 108.876H124.441V109.828H112.961V108.876ZM114.515 102.898H115.663V106.706H114.515V102.898ZM114.431 113.832H123.181V114.784H114.431V113.832ZM114.431 111.088H115.579V114.084H114.431V111.088ZM133.166 103.402C135 103.402 136.316 105.124 136.316 107.812C136.316 110.514 135 112.236 133.166 112.236C131.318 112.236 130.016 110.514 130.016 107.812C130.016 105.124 131.318 103.402 133.166 103.402ZM133.166 104.452C131.948 104.452 131.122 105.768 131.122 107.812C131.122 109.87 131.948 111.214 133.166 111.214C134.384 111.214 135.21 109.87 135.21 107.812C135.21 105.768 134.384 104.452 133.166 104.452ZM139.06 102.422H140.208V115.106H139.06V102.422ZM135.938 107.252H139.564V108.204H135.938V107.252ZM144.757 113.86H153.521V114.812H144.757V113.86ZM144.757 110.892H145.933V114.392H144.757V110.892ZM152.051 102.45H153.213V111.662H152.051V102.45ZM149.783 105.908H152.989V106.86H149.783V105.908ZM142.993 108.666H143.553C144.309 108.666 145.261 108.638 146.339 108.4L146.451 109.352C145.289 109.604 144.365 109.618 143.553 109.618H142.993V108.666ZM142.993 103.486H146.199V104.438H144.141V108.946H142.993V103.486ZM146.885 108.666H147.515C148.859 108.666 149.769 108.638 150.847 108.386L150.959 109.338C149.825 109.576 148.901 109.618 147.515 109.618H146.885V108.666ZM146.885 103.486H150.371V104.438H148.019V108.918H146.885V103.486ZM165.157 110.416C167.845 110.416 169.567 111.298 169.567 112.754C169.567 114.196 167.845 115.064 165.157 115.064C162.455 115.064 160.747 114.196 160.747 112.754C160.747 111.298 162.455 110.416 165.157 110.416ZM165.157 111.326C163.169 111.326 161.895 111.872 161.895 112.754C161.895 113.622 163.169 114.168 165.157 114.168C167.145 114.168 168.405 113.622 168.405 112.754C168.405 111.872 167.145 111.326 165.157 111.326ZM160.845 103.066H168.993V104.018H160.845V103.066ZM159.487 108.33H170.911V109.268H159.487V108.33ZM164.177 105.894H165.325V108.596H164.177V105.894ZM168.321 103.066H169.455V104.144C169.455 105.166 169.455 106.188 169.119 107.504L167.971 107.364C168.321 106.062 168.321 105.138 168.321 104.144V103.066ZM181.018 102.436H182.18V111.69H181.018V102.436ZM181.816 106.272H184.056V107.238H181.816V106.272ZM177.56 103.416H178.792C178.792 106.692 176.496 109.086 172.87 110.248L172.366 109.296C175.558 108.316 177.56 106.356 177.56 103.92V103.416ZM172.884 103.416H178.148V104.368H172.884V103.416ZM174.284 113.86H182.74V114.812H174.284V113.86ZM174.284 110.752H175.446V114.238H174.284V110.752ZM194.429 102.422H195.591V115.106H194.429V102.422ZM188.913 103.402C190.789 103.402 192.133 105.124 192.133 107.812C192.133 110.514 190.789 112.236 188.913 112.236C187.051 112.236 185.707 110.514 185.707 107.812C185.707 105.124 187.051 103.402 188.913 103.402ZM188.913 104.452C187.681 104.452 186.813 105.768 186.813 107.812C186.813 109.87 187.681 111.214 188.913 111.214C190.159 111.214 191.013 109.87 191.013 107.812C191.013 105.768 190.159 104.452 188.913 104.452ZM198.124 108.82H209.562V109.772H198.124V108.82ZM199.566 106.482H208.246V107.448H199.566V106.482ZM199.566 102.982H208.134V103.92H200.728V106.804H199.566V102.982ZM199.58 113.846H208.358V114.812H199.58V113.846ZM199.58 111.102H200.742V114.098H199.58V111.102ZM64.2323 124.436H65.3943V137.092H64.2323V124.436ZM55.3283 125.794H62.4963V126.746H55.3283V125.794ZM55.1323 133.97L54.9923 132.976C57.3443 132.976 60.4523 132.948 63.1403 132.626L63.2103 133.48C60.4803 133.914 57.4423 133.956 55.1323 133.97ZM56.7283 126.508H57.8483V133.242H56.7283V126.508ZM59.9623 126.508H61.0963V133.242H59.9623V126.508ZM71.2592 125.402C73.1212 125.402 74.4372 127.124 74.4372 129.812C74.4372 132.514 73.1212 134.236 71.2592 134.236C69.3972 134.236 68.0812 132.514 68.0812 129.812C68.0812 127.124 69.3972 125.402 71.2592 125.402ZM71.2592 126.452C70.0272 126.452 69.1872 127.768 69.1872 129.812C69.1872 131.87 70.0272 133.214 71.2592 133.214C72.4772 133.214 73.3312 131.87 73.3312 129.812C73.3312 127.768 72.4772 126.452 71.2592 126.452ZM76.4532 124.436H77.6292V137.092H76.4532V124.436ZM77.3492 129.49H79.7012V130.47H77.3492V129.49ZM82.1781 130.176H90.9421V131.128H82.1781V130.176ZM80.7781 134.502H92.2441V135.468H80.7781V134.502ZM85.9161 130.764H87.0641V134.81H85.9161V130.764ZM82.1781 125.5H83.3401V130.596H82.1781V125.5ZM102.211 124.422H103.387V137.092H102.211V124.422ZM103.065 129.56H105.403V130.526H103.065V129.56ZM98.977 125.794H100.111C100.111 129.392 98.459 132.64 94.371 134.698L93.727 133.802C97.227 132.024 98.977 129.322 98.977 125.976V125.794ZM94.315 125.794H99.579V126.746H94.315V125.794ZM113.623 132.22H114.519V132.906C114.519 134.558 113.483 136.224 111.663 136.924L111.075 136.056C112.671 135.482 113.623 134.124 113.623 132.906V132.22ZM113.875 132.22H114.743V132.906C114.743 134.18 115.499 135.538 117.011 136.154L116.521 137.036C114.701 136.322 113.875 134.586 113.875 132.906V132.22ZM118.299 132.22H119.167V132.906C119.167 134.39 118.327 136.266 116.521 137.036L116.031 136.154C117.529 135.468 118.299 133.998 118.299 132.906V132.22ZM118.537 132.22H119.433V132.906C119.433 134.208 120.371 135.51 121.981 136.056L121.393 136.924C119.545 136.252 118.537 134.656 118.537 132.906V132.22ZM119.671 124.45H120.847V131.674H119.671V124.45ZM114.057 125.178C115.975 125.178 117.347 126.382 117.347 128.132C117.347 129.882 115.975 131.072 114.057 131.072C112.139 131.072 110.753 129.882 110.753 128.132C110.753 126.382 112.139 125.178 114.057 125.178ZM114.057 126.144C112.797 126.144 111.887 126.956 111.887 128.132C111.887 129.308 112.797 130.106 114.057 130.106C115.317 130.106 116.227 129.308 116.227 128.132C116.227 126.956 115.317 126.144 114.057 126.144ZM129.064 125.234C131.696 125.234 133.656 126.634 133.656 128.734C133.656 130.848 131.696 132.234 129.064 132.234C126.432 132.234 124.458 130.848 124.458 128.734C124.458 126.634 126.432 125.234 129.064 125.234ZM129.064 126.186C127.062 126.186 125.578 127.208 125.578 128.734C125.578 130.246 127.062 131.282 129.064 131.282C131.066 131.282 132.55 130.246 132.55 128.734C132.55 127.208 131.066 126.186 129.064 126.186ZM123.352 134.446H134.818V135.426H123.352V134.446ZM142.293 126.662H145.835V127.614H142.293V126.662ZM142.293 129.364H145.863V130.33H142.293V129.364ZM136.805 125.528H142.587V131.464H136.805V125.528ZM141.439 126.466H137.939V130.526H141.439V126.466ZM145.471 124.45H146.633V133.69H145.471V124.45ZM138.499 135.86H146.941V136.812H138.499V135.86ZM138.499 132.85H139.661V136.294H138.499V132.85ZM161.602 124.436H162.778V137.092H161.602V124.436ZM162.498 129.406H164.85V130.4H162.498V129.406ZM153.538 125.5H154.686V128.846H158.298V125.5H159.446V134.054H153.538V125.5ZM154.686 129.77V133.102H158.298V129.77H154.686ZM165.927 134.572H177.393V135.538H165.927V134.572ZM171.051 131.856H172.213V134.978H171.051V131.856ZM167.313 125.374H175.979V129.21H168.503V131.744H167.355V128.272H174.831V126.312H167.313V125.374ZM167.355 131.254H176.273V132.206H167.355V131.254ZM191.395 124.436H192.557V131.59H191.395V124.436ZM192.193 127.516H194.433V128.482H192.193V127.516ZM184.493 132.276H192.893V133.228H184.493V132.276ZM184.381 135.958H193.047V136.896H184.381V135.958ZM186.243 132.5H187.391V136.406H186.243V132.5ZM190.009 132.5H191.143V136.406H190.009V132.5ZM186.271 125.164C188.189 125.164 189.575 126.382 189.575 128.132C189.575 129.882 188.189 131.1 186.271 131.1C184.353 131.1 182.967 129.882 182.967 128.132C182.967 126.382 184.353 125.164 186.271 125.164ZM186.271 126.13C185.011 126.13 184.101 126.956 184.101 128.132C184.101 129.308 185.011 130.134 186.271 130.134C187.531 130.134 188.441 129.308 188.441 128.132C188.441 126.956 187.531 126.13 186.271 126.13ZM201.334 125.234C203.966 125.234 205.926 126.634 205.926 128.734C205.926 130.848 203.966 132.234 201.334 132.234C198.702 132.234 196.728 130.848 196.728 128.734C196.728 126.634 198.702 125.234 201.334 125.234ZM201.334 126.186C199.332 126.186 197.848 127.208 197.848 128.734C197.848 130.246 199.332 131.282 201.334 131.282C203.336 131.282 204.82 130.246 204.82 128.734C204.82 127.208 203.336 126.186 201.334 126.186ZM195.622 134.446H207.088V135.426H195.622V134.446ZM208.501 134.572H219.967V135.538H208.501V134.572ZM213.625 131.856H214.787V134.978H213.625V131.856ZM209.887 125.374H218.553V129.21H211.077V131.744H209.929V128.272H217.405V126.312H209.887V125.374ZM209.929 131.254H218.847V132.206H209.929V131.254ZM80.2472 141.422H81.4232V154.106H80.2472V141.422ZM81.1432 146.42H83.4952V147.4H81.1432V146.42ZM72.2252 149.976H73.2192C75.5572 149.976 77.1952 149.892 79.0852 149.542L79.2112 150.522C77.2652 150.886 75.5992 150.956 73.2192 150.956H72.2252V149.976ZM72.2252 142.654H78.1052V143.606H73.3732V150.41H72.2252V142.654ZM93.1261 141.422H94.3021V154.092H93.1261V141.422ZM93.9801 146.56H96.3181V147.526H93.9801V146.56ZM89.8921 142.794H91.0261C91.0261 146.392 89.3741 149.64 85.2861 151.698L84.6421 150.802C88.1421 149.024 89.8921 146.322 89.8921 142.976V142.794ZM85.2301 142.794H90.4941V143.746H85.2301V142.794ZM106.005 141.422H107.181V154.092H106.005V141.422ZM106.859 146.56H109.197V147.526H106.859V146.56ZM102.771 142.794H103.905C103.905 146.392 102.253 149.64 98.165 151.698L97.521 150.802C101.021 149.024 102.771 146.322 102.771 142.976V142.794ZM98.109 142.794H103.373V143.746H98.109V142.794ZM117.753 142.15C119.643 142.15 121.029 143.368 121.029 145.076C121.029 146.812 119.643 148.016 117.753 148.016C115.877 148.016 114.491 146.812 114.491 145.076C114.491 143.368 115.877 142.15 117.753 142.15ZM117.753 143.116C116.549 143.116 115.625 143.942 115.625 145.076C115.625 146.238 116.549 147.05 117.753 147.05C118.985 147.05 119.909 146.238 119.909 145.076C119.909 143.942 118.985 143.116 117.753 143.116ZM122.919 141.436H124.095V148.268H122.919V141.436ZM123.605 144.418H125.957V145.384H123.605V144.418ZM121.491 149.22H122.387V150.102C122.387 151.796 121.463 153.392 119.643 154.036L119.097 153.168C120.651 152.622 121.491 151.362 121.491 150.102V149.22ZM121.687 149.22H122.597V150.102C122.597 151.39 123.423 152.65 124.977 153.168L124.431 154.036C122.611 153.392 121.687 151.838 121.687 150.102V149.22ZM115.583 152.706H116.199C117.011 152.706 118.285 152.608 119.111 152.118L119.447 153.042C118.425 153.574 117.151 153.644 116.199 153.644H115.583V152.706ZM115.583 149.192H116.717V153.126H115.583V149.192ZM119.447 148.926H124.627V149.85H119.447V148.926ZM128.35 142.696H136.498V143.662H128.35V142.696ZM127.146 151.362H138.584V152.328H127.146V151.362ZM131.584 146.84H132.746V151.838H131.584V146.84ZM136.064 142.696H137.212V143.956C137.212 145.524 137.212 147.26 136.75 149.822L135.588 149.668C136.064 147.246 136.064 145.468 136.064 143.956V142.696ZM141.565 145.23H150.161V146.182H141.565V145.23ZM140.011 147.876H151.491V148.828H140.011V147.876ZM141.565 141.898H142.713V145.706H141.565V141.898ZM141.481 152.832H150.231V153.784H141.481V152.832ZM141.481 150.088H142.629V153.084H141.481V150.088ZM166.39 141.45H167.496V149.276H166.39V141.45ZM164.332 144.908H166.726V145.86H164.332V144.908ZM163.702 141.632H164.808V149.094H163.702V141.632ZM156.772 142.878H163.184V143.802H156.772V142.878ZM159.992 144.432C161.574 144.432 162.68 145.286 162.68 146.602C162.68 147.918 161.574 148.772 159.992 148.772C158.396 148.772 157.29 147.918 157.29 146.602C157.29 145.286 158.396 144.432 159.992 144.432ZM159.992 145.314C158.998 145.314 158.326 145.818 158.326 146.602C158.326 147.386 158.998 147.904 159.992 147.904C160.972 147.904 161.644 147.386 161.644 146.602C161.644 145.818 160.972 145.314 159.992 145.314ZM159.418 141.492H160.552V143.424H159.418V141.492ZM160.174 149.654H161.07V150.088C161.07 151.684 160.02 153.28 158.186 153.938L157.64 153.07C159.222 152.538 160.174 151.236 160.174 150.088V149.654ZM160.44 149.654H161.294V150.088C161.294 151.306 162.036 152.594 163.548 153.168L163.058 154.05C161.252 153.378 160.44 151.698 160.44 150.088V149.654ZM164.822 149.654H165.676V150.088C165.676 151.516 164.85 153.322 163.058 154.05L162.582 153.168C164.052 152.524 164.822 151.138 164.822 150.088V149.654ZM165.06 149.654H165.956V150.088C165.956 151.32 166.908 152.566 168.504 153.07L167.944 153.938C166.096 153.308 165.06 151.768 165.06 150.088V149.654ZM173.095 142.402C174.929 142.402 176.245 144.124 176.245 146.812C176.245 149.514 174.929 151.236 173.095 151.236C171.247 151.236 169.945 149.514 169.945 146.812C169.945 144.124 171.247 142.402 173.095 142.402ZM173.095 143.452C171.877 143.452 171.051 144.768 171.051 146.812C171.051 148.87 171.877 150.214 173.095 150.214C174.313 150.214 175.139 148.87 175.139 146.812C175.139 144.768 174.313 143.452 173.095 143.452ZM178.989 141.422H180.137V154.106H178.989V141.422ZM175.867 146.252H179.493V147.204H175.867V146.252ZM185.399 147.946H186.547V151.74H185.399V147.946ZM190.075 147.946H191.237V151.74H190.075V147.946ZM182.599 151.516H194.065V152.482H182.599V151.516ZM188.311 142.234C190.985 142.234 192.903 143.508 192.903 145.496C192.903 147.47 190.985 148.744 188.311 148.744C185.623 148.744 183.705 147.47 183.705 145.496C183.705 143.508 185.623 142.234 188.311 142.234ZM188.311 143.158C186.281 143.158 184.825 144.082 184.825 145.496C184.825 146.896 186.281 147.82 188.311 147.82C190.341 147.82 191.783 146.896 191.783 145.496C191.783 144.082 190.341 143.158 188.311 143.158ZM195.932 149.977C195.922 149.427 196.011 148.985 196.2 148.65C196.389 148.315 196.634 148.071 196.936 147.919C197.241 147.767 197.562 147.69 197.9 147.69C198.239 147.69 198.547 147.765 198.825 147.914C199.107 148.06 199.428 148.29 199.79 148.605C200.035 148.817 200.23 148.966 200.376 149.053C200.525 149.139 200.688 149.182 200.864 149.182C201.149 149.182 201.374 149.079 201.54 148.874C201.705 148.665 201.785 148.363 201.778 147.969H202.852C202.862 148.519 202.773 148.961 202.584 149.296C202.398 149.631 202.153 149.875 201.848 150.027C201.543 150.179 201.222 150.256 200.883 150.256C200.545 150.256 200.237 150.183 199.959 150.037C199.68 149.888 199.359 149.656 198.994 149.341C198.752 149.129 198.557 148.98 198.408 148.893C198.258 148.807 198.096 148.764 197.92 148.764C197.652 148.764 197.43 148.859 197.254 149.048C197.082 149.233 196.999 149.543 197.006 149.977H195.932Z" fill="black"/>
</g>
<defs>
<clipPath id="clip0_3_2">
<rect width="267" height="230.8" fill="white"/>
</clipPath>
</defs>
</svg>
