<svg width="267" height="231" viewBox="0 0 267 231" fill="none" xmlns="http://www.w3.org/2000/svg">
<g clip-path="url(#clip0_4_9)">
<path d="M266 136.3C266 187.94 206.68 229.8 133.5 229.8C60.32 229.8 1 187.94 1.00001 136.3C1.00001 84.66 60.32 42.8 133.5 42.8C141.814 42.7968 150.119 43.348 158.36 44.45L225 2.80001L197.85 54.56C238.5 70.52 266 101.14 266 136.3Z" fill="white" stroke="#1D1D1B" stroke-width="2" stroke-miterlimit="10"/>
<path d="M65.4419 75.456C67.6019 75.456 69.1379 76.656 69.1379 78.432C69.1379 80.192 67.6019 81.424 65.4419 81.424C63.2979 81.424 61.7619 80.192 61.7619 78.432C61.7619 76.656 63.2979 75.456 65.4419 75.456ZM65.4419 76.56C64.0339 76.56 63.0259 77.328 63.0259 78.432C63.0259 79.552 64.0339 80.304 65.4419 80.304C66.8499 80.304 67.8579 79.552 67.8579 78.432C67.8579 77.328 66.8499 76.56 65.4419 76.56ZM64.8499 83.024H66.1779V88.8H64.8499V83.024ZM71.2499 74.784H72.5619V89.264H71.2499V74.784ZM60.8659 83.744L60.6899 82.624C63.3779 82.624 67.0419 82.592 70.2259 82.112L70.3219 83.104C67.0579 83.696 63.5059 83.744 60.8659 83.744ZM80.1286 75.824C82.3846 75.824 84.0006 77.216 84.0006 79.232C84.0006 81.264 82.3846 82.656 80.1286 82.656C77.8726 82.656 76.2406 81.264 76.2406 79.232C76.2406 77.216 77.8726 75.824 80.1286 75.824ZM80.1286 76.976C78.6246 76.976 77.5366 77.888 77.5366 79.232C77.5366 80.576 78.6246 81.504 80.1286 81.504C81.6166 81.504 82.7046 80.576 82.7046 79.232C82.7046 77.888 81.6166 76.976 80.1286 76.976ZM85.8886 74.768H87.2166V89.264H85.8886V74.768ZM75.6966 86.096L75.5046 84.992C78.1446 84.992 81.7926 84.976 84.9446 84.48L85.0566 85.456C81.8086 86.08 78.2726 86.096 75.6966 86.096ZM100.499 75.296H101.667V76.096C101.667 78.864 98.8514 80.848 95.8434 81.36L95.3154 80.288C97.9554 79.888 100.499 78.16 100.499 76.096V75.296ZM100.739 75.296H101.891V76.096C101.891 78.112 104.467 79.888 107.075 80.288L106.547 81.36C103.571 80.848 100.739 78.832 100.739 76.096V75.296ZM100.499 83.744H101.811V89.248H100.499V83.744ZM94.6594 82.928H107.731V84.032H94.6594V82.928ZM115.954 76.864H120.37V77.952H115.954V76.864ZM115.954 80.192H120.37V81.296H115.954V80.192ZM113.314 75.632C115.442 75.632 117.042 77.072 117.042 79.072C117.042 81.088 115.442 82.512 113.314 82.512C111.17 82.512 109.586 81.088 109.586 79.072C109.586 77.072 111.17 75.632 113.314 75.632ZM113.314 76.768C111.906 76.768 110.866 77.712 110.866 79.072C110.866 80.432 111.906 81.376 113.314 81.376C114.722 81.376 115.778 80.432 115.778 79.072C115.778 77.712 114.722 76.768 113.314 76.768ZM119.938 74.784H121.266V83.344H119.938V74.784ZM116.514 83.68C119.49 83.68 121.33 84.704 121.33 86.448C121.33 88.208 119.49 89.216 116.514 89.216C113.522 89.216 111.682 88.208 111.682 86.448C111.682 84.704 113.522 83.68 116.514 83.68ZM116.514 84.736C114.322 84.736 112.994 85.376 112.994 86.448C112.994 87.536 114.322 88.176 116.514 88.176C118.69 88.176 120.018 87.536 120.018 86.448C120.018 85.376 118.69 84.736 116.514 84.736ZM124.737 76.368H131.281V77.44H124.737V76.368ZM126.993 80.496H128.305V85.392H126.993V80.496ZM130.737 76.368H132.033V77.136C132.033 78.32 132.033 80.208 131.617 82.896L130.305 82.768C130.737 80.16 130.737 78.304 130.737 77.136V76.368ZM133.857 74.784H135.169V89.248H133.857V74.784ZM134.817 80.832H137.489V81.952H134.817V80.832ZM124.097 86.096L123.937 84.976C126.561 84.976 130.049 84.928 132.977 84.56L133.041 85.536C130.049 86.016 126.657 86.08 124.097 86.096ZM153.204 74.784H154.532V83.488H153.204V74.784ZM154.164 78.624H156.676V79.728H154.164V78.624ZM145.444 84.304H154.532V89.056H145.444V84.304ZM153.236 85.376H146.74V87.984H153.236V85.376ZM143.348 76.304H151.892V77.392H143.348V76.304ZM147.62 78.096C149.684 78.096 151.076 79.12 151.076 80.688C151.076 82.256 149.684 83.248 147.62 83.248C145.54 83.248 144.148 82.256 144.148 80.688C144.148 79.12 145.54 78.096 147.62 78.096ZM147.62 79.12C146.292 79.12 145.412 79.728 145.412 80.688C145.412 81.632 146.292 82.24 147.62 82.24C148.916 82.24 149.812 81.632 149.812 80.688C149.812 79.728 148.916 79.12 147.62 79.12ZM146.948 74.656H148.276V76.864H146.948V74.656ZM160.45 76.512H161.57C161.57 79.616 161.154 83.024 159.09 85.84L158.05 85.232C160.034 82.656 160.45 79.632 160.45 76.608V76.512ZM158.354 76.512H161.106V77.616H158.354V76.512ZM163.634 76.512H164.77C164.77 79.568 164.578 83.632 162.306 86.768L161.25 86.16C163.458 83.28 163.634 79.52 163.634 76.624V76.512ZM162.05 76.512H164.338V77.616H162.05V76.512ZM169.09 74.784H170.37V89.248H169.09V74.784ZM164.098 80.464H166.69V81.552H164.098V80.464ZM166.418 75.152H167.666V88.512H166.418V75.152ZM177.658 88V86.9773L181.499 82.7727C181.949 82.2803 182.321 81.8523 182.612 81.4886C182.904 81.1212 183.12 80.7765 183.26 80.4545C183.404 80.1288 183.476 79.7879 183.476 79.4318C183.476 79.0227 183.377 78.6686 183.18 78.3693C182.987 78.0701 182.722 77.839 182.385 77.6761C182.048 77.5133 181.669 77.4318 181.249 77.4318C180.802 77.4318 180.411 77.5246 180.078 77.7102C179.749 77.892 179.493 78.1477 179.311 78.4773C179.133 78.8068 179.044 79.1932 179.044 79.6364H177.703C177.703 78.9545 177.86 78.3561 178.175 77.8409C178.489 77.3258 178.917 76.9242 179.459 76.6364C180.004 76.3485 180.616 76.2045 181.294 76.2045C181.976 76.2045 182.58 76.3485 183.107 76.6364C183.633 76.9242 184.046 77.3125 184.345 77.8011C184.644 78.2898 184.794 78.8333 184.794 79.4318C184.794 79.8598 184.716 80.2784 184.561 80.6875C184.41 81.0928 184.144 81.5455 183.766 82.0455C183.391 82.5417 182.87 83.1477 182.203 83.8636L179.589 86.6591V86.75H184.999V88H177.658ZM197.501 74.784H198.829V85.504H197.501V74.784ZM193.421 76.672H197.997V77.744H193.421V76.672ZM189.581 87.84H199.213V88.928H189.581V87.84ZM189.581 84.576H190.909V88.336H189.581V84.576ZM187.773 75.84H189.101V82.656H187.773V75.84ZM187.773 82.24H188.861C190.925 82.24 192.861 82.128 195.117 81.728L195.245 82.832C192.925 83.248 190.989 83.344 188.861 83.344H187.773V82.24ZM193.421 79.424H197.997V80.512H193.421V79.424ZM208.187 75.024C211.371 75.024 213.275 75.92 213.275 77.536C213.275 79.152 211.371 80.048 208.187 80.048C204.987 80.048 203.099 79.152 203.099 77.536C203.099 75.92 204.987 75.024 208.187 75.024ZM208.187 76.032C205.819 76.032 204.459 76.576 204.459 77.536C204.459 78.496 205.819 79.04 208.187 79.04C210.539 79.04 211.899 78.496 211.899 77.536C211.899 76.576 210.539 76.032 208.187 76.032ZM201.643 81.008H214.715V82.08H201.643V81.008ZM203.227 83.312H213.051V86.576H204.571V88.336H203.259V85.616H211.739V84.336H203.227V83.312ZM203.259 88.048H213.483V89.088H203.259V88.048ZM53.4229 112.824H62.7349V118.056H53.4229V112.824ZM61.4389 113.88H54.7189V116.984H61.4389V113.88ZM51.6789 104.648H53.0069V110.648H51.6789V104.648ZM51.6789 110.072H52.7829C55.1029 110.072 57.0549 109.944 59.1989 109.496L59.3589 110.616C57.1509 111.064 55.1509 111.208 52.7829 111.208H51.6789V110.072ZM61.4069 103.784H62.7349V112.104H61.4069V103.784ZM57.3269 106.488H61.7429V107.576H57.3269V106.488ZM76.5736 103.784H77.8536V118.248H76.5736V103.784ZM70.3016 109.688H73.9496V110.76H70.3016V109.688ZM73.5656 104.152H74.8136V117.512H73.5656V104.152ZM70.4776 105.608H71.7576C71.7576 109.4 70.2376 112.808 66.3336 115.128L65.5496 114.184C68.9576 112.136 70.4776 109.256 70.4776 105.848V105.608ZM66.1896 105.608H70.9736V106.696H66.1896V105.608ZM95.6964 103.8H96.9604V112.744H95.6964V103.8ZM93.3444 107.752H96.0804V108.84H93.3444V107.752ZM92.6244 104.008H93.8884V112.536H92.6244V104.008ZM84.7044 105.432H92.0324V106.488H84.7044V105.432ZM88.3844 107.208C90.1924 107.208 91.4564 108.184 91.4564 109.688C91.4564 111.192 90.1924 112.168 88.3844 112.168C86.5604 112.168 85.2964 111.192 85.2964 109.688C85.2964 108.184 86.5604 107.208 88.3844 107.208ZM88.3844 108.216C87.2484 108.216 86.4804 108.792 86.4804 109.688C86.4804 110.584 87.2484 111.176 88.3844 111.176C89.5044 111.176 90.2724 110.584 90.2724 109.688C90.2724 108.792 89.5044 108.216 88.3844 108.216ZM87.7284 103.848H89.0244V106.056H87.7284V103.848ZM88.5924 113.176H89.6164V113.672C89.6164 115.496 88.4164 117.32 86.3204 118.072L85.6964 117.08C87.5044 116.472 88.5924 114.984 88.5924 113.672V113.176ZM88.8964 113.176H89.8724V113.672C89.8724 115.064 90.7204 116.536 92.4484 117.192L91.8884 118.2C89.8244 117.432 88.8964 115.512 88.8964 113.672V113.176ZM93.9044 113.176H94.8804V113.672C94.8804 115.304 93.9364 117.368 91.8884 118.2L91.3444 117.192C93.0244 116.456 93.9044 114.872 93.9044 113.672V113.176ZM94.1764 113.176H95.2004V113.672C95.2004 115.08 96.2884 116.504 98.1124 117.08L97.4724 118.072C95.3604 117.352 94.1764 115.592 94.1764 113.672V113.176ZM101.263 108.12H111.087V109.208H101.263V108.12ZM99.4871 111.144H112.607V112.232H99.4871V111.144ZM101.263 104.312H102.575V108.664H101.263V104.312ZM101.167 116.808H111.167V117.896H101.167V116.808ZM101.167 113.672H102.479V117.096H101.167V113.672ZM125.214 103.784H126.494V118.248H125.214V103.784ZM119.214 109.304H122.846V110.392H119.214V109.304ZM122.302 104.12H123.566V117.512H122.302V104.12ZM114.75 113.656H115.678C117.934 113.656 119.294 113.592 120.894 113.256L121.022 114.36C119.374 114.712 117.982 114.776 115.678 114.776H114.75V113.656ZM114.75 105.544H120.19V106.632H116.062V114.088H114.75V105.544ZM144.017 103.768H145.329V118.264H144.017V103.768ZM140.897 109.048H144.401V110.136H140.897V109.048ZM137.105 105.848H138.177V108.008C138.177 111.128 136.385 114.216 134.097 115.4L133.313 114.344C135.393 113.32 137.105 110.584 137.105 108.008V105.848ZM137.377 105.848H138.433V108.008C138.433 110.424 140.113 113.064 142.209 114.056L141.425 115.096C139.137 113.96 137.377 110.984 137.377 108.008V105.848ZM133.841 105.256H141.713V106.36H133.841V105.256ZM149.919 108.12H159.743V109.208H149.919V108.12ZM148.143 111.144H161.263V112.232H148.143V111.144ZM149.919 104.312H151.231V108.664H149.919V104.312ZM149.823 116.808H159.823V117.896H149.823V116.808ZM149.823 113.672H151.135V117.096H149.823V113.672ZM177.266 103.8H178.594V114.648H177.266V103.8ZM178.178 108.536H180.738V109.656H178.178V108.536ZM167.41 105.544H175.954V106.616H167.41V105.544ZM171.682 107.416C173.73 107.416 175.138 108.488 175.138 110.12C175.138 111.736 173.73 112.808 171.682 112.808C169.618 112.808 168.21 111.736 168.21 110.12C168.21 108.488 169.618 107.416 171.682 107.416ZM171.682 108.456C170.37 108.456 169.474 109.112 169.474 110.12C169.474 111.112 170.37 111.768 171.682 111.768C172.978 111.768 173.874 111.112 173.874 110.12C173.874 109.112 172.978 108.456 171.682 108.456ZM171.01 103.784H172.338V106.104H171.01V103.784ZM169.586 116.84H179.25V117.928H169.586V116.84ZM169.586 113.784H170.914V117.304H169.586V113.784ZM188.913 107.864H193.073V108.952H188.913V107.864ZM192.657 103.8H193.985V114.504H192.657V103.8ZM184.689 116.84H194.337V117.928H184.689V116.84ZM184.689 113.464H186.017V117.4H184.689V113.464ZM182.801 104.744H184.113V107.304H188.033V104.744H189.329V112.04H182.801V104.744ZM184.113 108.344V110.952H188.033V108.344H184.113ZM208.02 104.392H212.164V105.464H208.02V104.392ZM201.316 110.376H214.372V111.464H201.316V110.376ZM207.46 107.624H208.772V110.84H207.46V107.624ZM211.604 104.392H212.9V105.032C212.9 105.912 212.9 107.384 212.484 109.336L211.188 109.192C211.604 107.208 211.604 105.88 211.604 105.032V104.392ZM202.436 104.392H206.244V105.464H202.436V104.392ZM205.54 104.392H206.82V104.888C206.82 105.688 206.82 107.256 206.148 109.336L204.868 109.144C205.54 107.048 205.54 105.672 205.54 104.888V104.392ZM207.172 113.272H208.308V113.416C208.308 116.04 205.732 117.704 202.788 118.184L202.292 117.144C204.9 116.776 207.172 115.368 207.172 113.416V113.272ZM207.412 113.272H208.548V113.416C208.548 115.368 210.82 116.792 213.412 117.16L212.916 118.2C209.972 117.72 207.412 116.056 207.412 113.416V113.272ZM202.884 112.984H212.852V114.04H202.884V112.984ZM226.53 103.784H227.858V118.248H226.53V103.784ZM216.354 106.12H225.026V107.192H216.354V106.12ZM220.706 108.376C222.786 108.376 224.29 109.752 224.29 111.704C224.29 113.656 222.786 115.032 220.706 115.032C218.626 115.032 217.138 113.656 217.138 111.704C217.138 109.752 218.626 108.376 220.706 108.376ZM220.706 109.48C219.378 109.48 218.402 110.392 218.402 111.704C218.402 113 219.378 113.928 220.706 113.928C222.034 113.928 223.01 113 223.01 111.704C223.01 110.392 222.034 109.48 220.706 109.48ZM220.018 103.928H221.346V106.776H220.018V103.928ZM57.7749 135.328H61.8229V136.416H57.7749V135.328ZM57.7749 138.416H61.8549V139.52H57.7749V138.416ZM51.5029 134.032H58.1109V140.816H51.5029V134.032ZM56.7989 135.104H52.7989V139.744H56.7989V135.104ZM61.4069 132.8H62.7349V143.36H61.4069V132.8ZM53.4389 145.84H63.0869V146.928H53.4389V145.84ZM53.4389 142.4H54.7669V146.336H53.4389V142.4ZM75.9216 140.016H77.2496V142.544H75.9216V140.016ZM70.0496 139.552H83.1216V140.624H70.0496V139.552ZM76.5776 142.144C79.6816 142.144 81.5376 143.056 81.5376 144.688C81.5376 146.304 79.6816 147.216 76.5776 147.216C73.4736 147.216 71.6176 146.304 71.6176 144.688C71.6176 143.056 73.4736 142.144 76.5776 142.144ZM76.5776 143.168C74.3216 143.168 72.9616 143.712 72.9616 144.688C72.9616 145.648 74.3216 146.192 76.5776 146.192C78.8496 146.192 80.1936 145.648 80.1936 144.688C80.1936 143.712 78.8496 143.168 76.5776 143.168ZM75.7296 133.968H76.9136V134.4C76.9136 136.736 74.2576 138.304 71.2656 138.672L70.7856 137.616C73.3776 137.344 75.7296 136.048 75.7296 134.4V133.968ZM76.2896 133.968H77.4576V134.4C77.4576 136.048 79.8096 137.344 82.4016 137.616L81.9216 138.672C78.9296 138.304 76.2896 136.736 76.2896 134.4V133.968ZM71.2496 133.44H81.9536V134.512H71.2496V133.44ZM84.7844 140H97.8564V141.056H84.7844V140ZM90.6564 137.504H91.9684V140.416H90.6564V137.504ZM86.2244 142.464H96.2564V147.36H94.9284V143.552H86.2244V142.464ZM86.4324 137.184H96.3524V138.272H86.4324V137.184ZM86.4324 133.36H96.2244V134.448H87.7604V137.744H86.4324V133.36ZM109.843 133.296H111.011V134.096C111.011 136.864 108.195 138.848 105.187 139.36L104.659 138.288C107.299 137.888 109.843 136.16 109.843 134.096V133.296ZM110.083 133.296H111.235V134.096C111.235 136.112 113.811 137.888 116.419 138.288L115.891 139.36C112.915 138.848 110.083 136.832 110.083 134.096V133.296ZM109.843 141.744H111.155V147.248H109.843V141.744ZM104.003 140.928H117.075V142.032H104.003V140.928ZM124.386 134.144H125.57V134.576C125.57 137.024 122.962 138.736 120.002 139.184L119.506 138.112C122.066 137.776 124.386 136.336 124.386 134.576V134.144ZM124.946 134.144H126.114V134.576C126.114 136.336 128.45 137.776 131.01 138.112L130.498 139.184C127.554 138.736 124.946 137.024 124.946 134.576V134.144ZM119.906 133.504H130.61V134.576H119.906V133.504ZM118.706 140.224H131.81V141.312H118.706V140.224ZM124.69 140.896H126.018V144.224H124.69V140.896ZM120.37 145.84H130.354V146.928H120.37V145.84ZM120.37 142.832H121.682V146.256H120.37V142.832ZM143.937 132.768H145.265V147.264H143.937V132.768ZM137.633 133.888C139.777 133.888 141.313 135.856 141.313 138.928C141.313 142.016 139.777 143.984 137.633 143.984C135.505 143.984 133.969 142.016 133.969 138.928C133.969 135.856 135.505 133.888 137.633 133.888ZM137.633 135.088C136.225 135.088 135.233 136.592 135.233 138.928C135.233 141.28 136.225 142.816 137.633 142.816C139.057 142.816 140.033 141.28 140.033 138.928C140.033 136.592 139.057 135.088 137.633 135.088ZM153.795 139.008H161.203V140.096H153.795V139.008ZM156.755 139.872H158.099V143.2H156.755V139.872ZM153.795 134.144H161.123V135.232H155.123V139.392H153.795V134.144ZM163.107 132.768H164.435V147.264H163.107V132.768ZM152.915 144.128L152.723 143.024C155.555 143.008 159.107 142.976 162.163 142.608L162.275 143.6C159.107 144.08 155.651 144.144 152.915 144.128ZM177.906 132.784H179.234V147.248H177.906V132.784ZM173.666 134.336H174.978C174.978 138.528 173.09 142.192 168.258 144.56L167.554 143.488C171.73 141.472 173.666 138.4 173.666 134.56V134.336ZM168.21 134.336H174.242V135.424H168.21V134.336ZM187.953 138.4H190.689V139.504H187.953V138.4ZM193.105 132.784H194.385V147.248H193.105V132.784ZM190.241 133.088H191.505V146.528H190.241V133.088ZM185.345 133.984C187.217 133.984 188.433 135.92 188.433 139.024C188.433 142.128 187.217 144.064 185.345 144.064C183.473 144.064 182.273 142.128 182.273 139.024C182.273 135.92 183.473 133.984 185.345 133.984ZM185.345 135.216C184.209 135.216 183.489 136.688 183.489 139.024C183.489 141.36 184.209 142.832 185.345 142.832C186.497 142.832 187.217 141.36 187.217 139.024C187.217 136.688 186.497 135.216 185.345 135.216ZM207.108 133.776H208.26V134.88C208.26 138.032 205.332 140.48 202.436 141.136L201.844 140.032C204.388 139.552 207.108 137.344 207.108 134.88V133.776ZM207.348 133.776H208.5V134.88C208.5 137.36 211.236 139.552 213.764 140.032L213.172 141.136C210.292 140.48 207.348 138.048 207.348 134.88V133.776ZM201.316 144.208H214.42V145.296H201.316V144.208ZM221.826 133.776H222.978V134.88C222.978 138.032 220.05 140.48 217.154 141.136L216.562 140.032C219.106 139.552 221.826 137.344 221.826 134.88V133.776ZM222.066 133.776H223.218V134.88C223.218 137.36 225.954 139.552 228.482 140.032L227.89 141.136C225.01 140.48 222.066 138.048 222.066 134.88V133.776ZM216.034 144.208H229.138V145.296H216.034V144.208ZM45.7375 173.368H58.8415V174.472H45.7375V173.368ZM51.5935 170.264H52.9215V173.832H51.5935V170.264ZM47.3215 162.856H57.2255V167.24H48.6815V170.136H47.3695V166.168H55.9135V163.928H47.3215V162.856ZM47.3695 169.576H57.5615V170.664H47.3695V169.576ZM62.2163 166.12H72.0403V167.208H62.2163V166.12ZM60.4403 169.144H73.5603V170.232H60.4403V169.144ZM62.2163 162.312H63.5283V166.664H62.2163V162.312ZM62.1203 174.808H72.1203V175.896H62.1203V174.808ZM62.1203 171.672H63.4323V175.096H62.1203V171.672ZM79.659 170.344H92.779V171.432H79.659V170.344ZM85.515 170.856H86.827V176.248H85.515V170.856ZM81.307 162.36H82.635V164.344H89.787V162.36H91.099V168.616H81.307V162.36ZM82.635 165.416V167.544H89.787V165.416H82.635ZM104.906 161.8H106.25V172.36H104.906V161.8ZM96.9538 174.84H106.682V175.928H96.9538V174.84ZM96.9538 171.272H98.2658V175.208H96.9538V171.272ZM98.4898 162.792C100.65 162.792 102.25 164.264 102.25 166.36C102.25 168.44 100.65 169.928 98.4898 169.928C96.3298 169.928 94.7138 168.44 94.7138 166.36C94.7138 164.264 96.3298 162.792 98.4898 162.792ZM98.4898 163.944C97.0818 163.944 96.0098 164.936 96.0098 166.36C96.0098 167.768 97.0818 168.76 98.4898 168.76C99.8978 168.76 100.97 167.768 100.97 166.36C100.97 164.936 99.8978 163.944 98.4898 163.944ZM120.025 161.8H121.289V170.744H120.025V161.8ZM117.673 165.752H120.409V166.84H117.673V165.752ZM116.953 162.008H118.217V170.536H116.953V162.008ZM109.033 163.432H116.361V164.488H109.033V163.432ZM112.713 165.208C114.521 165.208 115.785 166.184 115.785 167.688C115.785 169.192 114.521 170.168 112.713 170.168C110.889 170.168 109.625 169.192 109.625 167.688C109.625 166.184 110.889 165.208 112.713 165.208ZM112.713 166.216C111.577 166.216 110.809 166.792 110.809 167.688C110.809 168.584 111.577 169.176 112.713 169.176C113.833 169.176 114.601 168.584 114.601 167.688C114.601 166.792 113.833 166.216 112.713 166.216ZM112.057 161.848H113.353V164.056H112.057V161.848ZM112.921 171.176H113.945V171.672C113.945 173.496 112.745 175.32 110.649 176.072L110.025 175.08C111.833 174.472 112.921 172.984 112.921 171.672V171.176ZM113.225 171.176H114.201V171.672C114.201 173.064 115.049 174.536 116.777 175.192L116.217 176.2C114.153 175.432 113.225 173.512 113.225 171.672V171.176ZM118.233 171.176H119.209V171.672C119.209 173.304 118.265 175.368 116.217 176.2L115.673 175.192C117.352 174.456 118.233 172.872 118.233 171.672V171.176ZM118.505 171.176H119.529V171.672C119.529 173.08 120.617 174.504 122.441 175.08L121.801 176.072C119.689 175.352 118.505 173.592 118.505 171.672V171.176ZM127.655 163.848H128.727V166.2C128.727 169.256 126.887 172.328 124.583 173.464L123.815 172.408C125.911 171.416 127.655 168.696 127.655 166.2V163.848ZM127.911 163.848H128.983V166.2C128.983 168.648 130.727 171.144 132.855 172.056L132.103 173.112C129.767 172.024 127.911 169.208 127.911 166.2V163.848ZM124.295 163.256H132.375V164.376H124.295V163.256ZM134.327 161.784H135.655V176.248H134.327V161.784ZM139.142 163.08H145.782V169.784H139.142V163.08ZM144.486 164.152H140.438V168.712H144.486V164.152ZM148.438 161.768H149.766V172.376H148.438V161.768ZM149.35 166.184H151.91V167.288H149.35V166.184ZM140.758 174.84H150.422V175.928H140.758V174.84ZM140.758 171.368H142.086V175.304H140.758V171.368ZM157.753 169.112H170.873V170.2H157.753V169.112ZM163.737 169.8H165.081V173.128H163.737V169.8ZM159.417 174.824H169.417V175.928H159.417V174.824ZM159.417 171.704H160.745V175.128H159.417V171.704ZM164.297 162.136C167.353 162.136 169.369 163.256 169.369 165.048C169.369 166.84 167.353 167.96 164.297 167.96C161.225 167.96 159.225 166.84 159.225 165.048C159.225 163.256 161.225 162.136 164.297 162.136ZM164.297 163.224C162.089 163.224 160.633 163.928 160.633 165.048C160.633 166.184 162.089 166.872 164.297 166.872C166.505 166.872 167.961 166.184 167.961 165.048C167.961 163.928 166.505 163.224 164.297 163.224ZM172.488 168.904H185.56V169.992H172.488V168.904ZM178.36 166.584H179.672V169.352H178.36V166.584ZM174.136 166.168H184.04V167.256H174.136V166.168ZM174.136 162.44H183.928V163.512H175.448V166.808H174.136V162.44ZM179 171.032C182.088 171.032 183.96 171.976 183.96 173.624C183.96 175.304 182.088 176.232 179 176.232C175.911 176.232 174.039 175.304 174.039 173.624C174.039 171.976 175.911 171.032 179 171.032ZM179 172.056C176.744 172.056 175.384 172.632 175.384 173.624C175.384 174.632 176.744 175.192 179 175.192C181.272 175.192 182.616 174.632 182.616 173.624C182.616 172.632 181.272 172.056 179 172.056ZM193.062 169.016H194.39V171.544H193.062V169.016ZM187.19 168.552H200.262V169.624H187.19V168.552ZM193.718 171.144C196.822 171.144 198.678 172.056 198.678 173.688C198.678 175.304 196.822 176.216 193.718 176.216C190.614 176.216 188.758 175.304 188.758 173.688C188.758 172.056 190.614 171.144 193.718 171.144ZM193.718 172.168C191.462 172.168 190.102 172.712 190.102 173.688C190.102 174.648 191.462 175.192 193.718 175.192C195.99 175.192 197.334 174.648 197.334 173.688C197.334 172.712 195.99 172.168 193.718 172.168ZM192.87 162.968H194.054V163.4C194.054 165.736 191.398 167.304 188.406 167.672L187.926 166.616C190.518 166.344 192.87 165.048 192.87 163.4V162.968ZM193.43 162.968H194.598V163.4C194.598 165.048 196.95 166.344 199.542 166.616L199.062 167.672C196.07 167.304 193.43 165.736 193.43 163.4V162.968ZM188.39 162.44H199.094V163.512H188.39V162.44ZM201.925 169H214.997V170.056H201.925V169ZM207.797 166.504H209.109V169.416H207.797V166.504ZM203.365 171.464H213.397V176.36H212.069V172.552H203.365V171.464ZM203.573 166.184H213.493V167.272H203.573V166.184ZM203.573 162.36H213.365V163.448H204.901V166.744H203.573V162.36ZM227.96 163.832H232.04V164.872H227.96V163.832ZM227.96 166.472H232.04V167.512H227.96V166.472ZM231.704 161.784H233.032V169.32H231.704V161.784ZM223.72 170.04H233.032V173.464H225.048V175.688H223.752V172.472H231.72V171.096H223.72V170.04ZM223.752 175H233.56V176.056H223.752V175ZM221.848 162.44H223.16V164.52H227.08V162.44H228.376V168.76H221.848V162.44ZM223.16 165.56V167.688H227.08V165.56H223.16ZM88.6569 193.12H92.8329V194.208H88.6569V193.12ZM88.6569 196H92.8649V197.072H88.6569V196ZM92.3209 190.784H93.6489V199.344H92.3209V190.784ZM82.4169 191.872H89.0249V198.304H82.4169V191.872ZM87.7129 192.944H83.7129V197.248H87.7129V192.944ZM88.8969 199.76C91.8729 199.76 93.7129 200.768 93.7129 202.496C93.7129 204.224 91.8729 205.216 88.8969 205.216C85.9049 205.216 84.0649 204.224 84.0649 202.496C84.0649 200.768 85.9049 199.76 88.8969 199.76ZM88.8969 200.816C86.7209 200.816 85.3929 201.44 85.3929 202.496C85.3929 203.552 86.7209 204.176 88.8969 204.176C91.0729 204.176 92.4009 203.552 92.4009 202.496C92.4009 201.44 91.0729 200.816 88.8969 200.816ZM106.976 190.768H108.304V205.264H106.976V190.768ZM100.672 191.888C102.816 191.888 104.352 193.856 104.352 196.928C104.352 200.016 102.816 201.984 100.672 201.984C98.5437 201.984 97.0077 200.016 97.0077 196.928C97.0077 193.856 98.5437 191.888 100.672 191.888ZM100.672 193.088C99.2637 193.088 98.2717 194.592 98.2717 196.928C98.2717 199.28 99.2637 200.816 100.672 200.816C102.096 200.816 103.072 199.28 103.072 196.928C103.072 194.592 102.096 193.088 100.672 193.088ZM117.314 199.68H127.218V200.656H118.642V204.656H117.314V199.68ZM117.314 204.096H127.378V205.088H117.314V204.096ZM118.162 201.872H126.898V202.832H118.162V201.872ZM121.554 197.76H122.866V199.968H121.554V197.76ZM115.682 197.12H128.754V198.192H115.682V197.12ZM117.426 191.04H118.738V192.432H125.73V191.04H127.058V195.92H117.426V191.04ZM118.738 193.456V194.88H125.73V193.456H118.738ZM134.097 199.6H135.137V200.432C135.137 202.352 133.953 204.272 131.873 205.072L131.201 204.08C133.025 203.408 134.097 201.84 134.097 200.432V199.6ZM134.401 199.6H135.393V200.432C135.393 201.904 136.241 203.488 137.985 204.192L137.425 205.2C135.329 204.384 134.401 202.368 134.401 200.432V199.6ZM139.457 199.6H140.433V200.432C140.433 202.144 139.489 204.32 137.425 205.2L136.849 204.192C138.577 203.392 139.457 201.696 139.457 200.432V199.6ZM139.713 199.6H140.753V200.432C140.753 201.952 141.809 203.456 143.665 204.08L142.977 205.072C140.881 204.304 139.713 202.448 139.713 200.432V199.6ZM137.521 194.4H141.345V195.504H137.521V194.4ZM134.353 191.6C136.481 191.6 138.065 192.992 138.065 194.992C138.065 196.976 136.481 198.368 134.353 198.368C132.225 198.368 130.657 196.976 130.657 194.992C130.657 192.992 132.225 191.6 134.353 191.6ZM134.353 192.704C132.945 192.704 131.921 193.664 131.921 194.992C131.921 196.32 132.945 197.264 134.353 197.264C135.745 197.264 136.785 196.32 136.785 194.992C136.785 193.664 135.745 192.704 134.353 192.704ZM140.977 190.784H142.305V199.024H140.977V190.784ZM148.816 199.6H149.856V200.432C149.856 202.352 148.672 204.272 146.592 205.072L145.92 204.08C147.744 203.408 148.816 201.84 148.816 200.432V199.6ZM149.12 199.6H150.112V200.432C150.112 201.904 150.96 203.488 152.704 204.192L152.144 205.2C150.048 204.384 149.12 202.368 149.12 200.432V199.6ZM154.176 199.6H155.152V200.432C155.152 202.144 154.208 204.32 152.144 205.2L151.568 204.192C153.296 203.392 154.176 201.696 154.176 200.432V199.6ZM154.432 199.6H155.472V200.432C155.472 201.952 156.528 203.456 158.384 204.08L157.696 205.072C155.6 204.304 154.432 202.448 154.432 200.432V199.6ZM152.24 194.4H156.064V195.504H152.24V194.4ZM149.072 191.6C151.2 191.6 152.784 192.992 152.784 194.992C152.784 196.976 151.2 198.368 149.072 198.368C146.944 198.368 145.376 196.976 145.376 194.992C145.376 192.992 146.944 191.6 149.072 191.6ZM149.072 192.704C147.664 192.704 146.64 193.664 146.64 194.992C146.64 196.32 147.664 197.264 149.072 197.264C150.464 197.264 151.504 196.32 151.504 194.992C151.504 193.664 150.464 192.704 149.072 192.704ZM155.696 190.784H157.024V199.024H155.696V190.784ZM163.711 191.888C165.807 191.888 167.311 193.856 167.311 196.928C167.311 200.016 165.807 201.984 163.711 201.984C161.599 201.984 160.111 200.016 160.111 196.928C160.111 193.856 161.599 191.888 163.711 191.888ZM163.711 193.088C162.319 193.088 161.375 194.592 161.375 196.928C161.375 199.28 162.319 200.816 163.711 200.816C165.103 200.816 166.047 199.28 166.047 196.928C166.047 194.592 165.103 193.088 163.711 193.088ZM170.447 190.768H171.759V205.264H170.447V190.768ZM166.879 196.288H171.023V197.376H166.879V196.288ZM177.773 198.224H179.085V202.56H177.773V198.224ZM183.117 198.224H184.445V202.56H183.117V198.224ZM174.573 202.304H187.677V203.408H174.573V202.304ZM181.101 191.696C184.157 191.696 186.349 193.152 186.349 195.424C186.349 197.68 184.157 199.136 181.101 199.136C178.029 199.136 175.837 197.68 175.837 195.424C175.837 193.152 178.029 191.696 181.101 191.696ZM181.101 192.752C178.781 192.752 177.117 193.808 177.117 195.424C177.117 197.024 178.781 198.08 181.101 198.08C183.421 198.08 185.069 197.024 185.069 195.424C185.069 193.808 183.421 192.752 181.101 192.752ZM189.81 200.545C189.799 199.917 189.901 199.411 190.117 199.028C190.333 198.646 190.613 198.367 190.958 198.193C191.307 198.019 191.674 197.932 192.06 197.932C192.447 197.932 192.799 198.017 193.117 198.188C193.439 198.354 193.807 198.617 194.219 198.977C194.5 199.22 194.723 199.39 194.89 199.489C195.06 199.587 195.246 199.636 195.447 199.636C195.772 199.636 196.03 199.519 196.219 199.284C196.409 199.045 196.5 198.701 196.492 198.25H197.719C197.731 198.879 197.629 199.384 197.413 199.767C197.201 200.15 196.92 200.428 196.572 200.602C196.223 200.777 195.856 200.864 195.469 200.864C195.083 200.864 194.731 200.78 194.413 200.614C194.094 200.443 193.727 200.178 193.31 199.818C193.034 199.576 192.81 199.405 192.64 199.307C192.469 199.208 192.284 199.159 192.083 199.159C191.776 199.159 191.522 199.267 191.322 199.483C191.125 199.695 191.03 200.049 191.038 200.545H189.81Z" fill="black"/>
</g>
<defs>
<clipPath id="clip0_4_9">
<rect width="267" height="230.8" fill="white" transform="translate(267 230.8) rotate(-180)"/>
</clipPath>
</defs>
</svg>
