<svg width="267" height="231" viewBox="0 0 267 231" fill="none" xmlns="http://www.w3.org/2000/svg">
<g clip-path="url(#clip0_4_9)">
<path d="M1 94.5C1 42.86 60.32 1 133.5 1C206.68 1 266 42.86 266 94.5C266 146.14 206.68 188 133.5 188C125.186 188.003 116.881 187.452 108.64 186.35L42 228L69.15 176.24C28.5 160.28 1 129.66 1 94.5Z" fill="white" stroke="#1D1D1B" stroke-width="2" stroke-miterlimit="10"/>
<path d="M76.5972 41.436H77.7592V47.988H76.5972V41.436ZM69.5832 48.632H77.7732V51.67H70.7452V53.406H69.6112V50.802H76.6252V49.542H69.5832V48.632ZM69.6112 53.028H78.1932V53.952H69.6112V53.028ZM70.6892 41.8H71.6552V42.766C71.6552 45.104 70.1992 47.092 68.0572 47.876L67.4832 46.952C69.3872 46.28 70.6892 44.6 70.6892 42.766V41.8ZM70.8992 41.8H71.8512V42.766C71.8512 44.516 73.1812 46.098 75.0572 46.714L74.4832 47.624C72.3552 46.896 70.8992 45.034 70.8992 42.766V41.8ZM89.4761 41.436H90.6381V47.988H89.4761V41.436ZM82.4621 48.604H90.6521V51.642H83.6241V53.448H82.4901V50.802H89.5041V49.528H82.4621V48.604ZM82.4901 53.028H91.0721V53.952H82.4901V53.028ZM83.6381 42.556H84.5901V43.214C84.5901 45.454 83.1341 47.302 80.9921 48.016L80.4461 47.106C82.3361 46.49 83.6381 44.936 83.6381 43.214V42.556ZM83.8761 42.556H84.8281V43.214C84.8281 44.824 86.1441 46.28 88.0201 46.854L87.4741 47.75C85.3461 47.092 83.8761 45.342 83.8761 43.214V42.556ZM80.7541 42.15H87.6841V43.088H80.7541V42.15ZM96.377 42.724H97.329V43.746C97.329 46.056 95.901 48.03 93.787 48.814L93.185 47.89C95.075 47.218 96.377 45.538 96.377 43.746V42.724ZM96.601 42.724H97.539V43.746C97.539 45.37 98.771 46.952 100.605 47.596L100.017 48.52C97.959 47.764 96.601 45.86 96.601 43.746V42.724ZM99.919 44.726H102.733V45.692H99.919V44.726ZM93.549 42.304H100.311V43.242H93.549V42.304ZM95.117 49.696H103.559V54.092H102.397V50.648H95.117V49.696ZM102.397 41.436H103.559V49.01H102.397V41.436ZM115.22 41.422H116.382V54.106H115.22V41.422ZM109.704 42.402C111.58 42.402 112.924 44.124 112.924 46.812C112.924 49.514 111.58 51.236 109.704 51.236C107.842 51.236 106.498 49.514 106.498 46.812C106.498 44.124 107.842 42.402 109.704 42.402ZM109.704 43.452C108.472 43.452 107.604 44.768 107.604 46.812C107.604 48.87 108.472 50.214 109.704 50.214C110.95 50.214 111.804 48.87 111.804 46.812C111.804 44.768 110.95 43.452 109.704 43.452ZM120.119 42.696H128.267V43.662H120.119V42.696ZM118.915 51.362H130.353V52.328H118.915V51.362ZM123.353 46.84H124.515V51.838H123.353V46.84ZM127.833 42.696H128.981V43.956C128.981 45.524 128.981 47.26 128.519 49.822L127.357 49.668C127.833 47.246 127.833 45.468 127.833 43.956V42.696ZM144.971 41.45H146.133V51.096H144.971V41.45ZM142.829 44.796H145.461V45.748H142.829V44.796ZM142.829 47.47H145.461V48.408H142.829V47.47ZM135.745 42.976H142.829V43.914H135.745V42.976ZM139.329 44.614C141.009 44.614 142.185 45.58 142.185 47.036C142.185 48.478 141.009 49.458 139.329 49.458C137.635 49.458 136.459 48.478 136.459 47.036C136.459 45.58 137.635 44.614 139.329 44.614ZM139.329 45.524C138.279 45.524 137.565 46.14 137.565 47.036C137.565 47.932 138.279 48.534 139.329 48.534C140.379 48.534 141.093 47.932 141.093 47.036C141.093 46.14 140.379 45.524 139.329 45.524ZM138.755 41.422H139.917V43.578H138.755V41.422ZM137.999 52.86H146.441V53.812H137.999V52.86ZM137.999 50.27H139.161V53.322H137.999V50.27ZM157.808 41.436H158.97V47.988H157.808V41.436ZM150.794 48.632H158.984V51.67H151.956V53.406H150.822V50.802H157.836V49.542H150.794V48.632ZM150.822 53.028H159.404V53.952H150.822V53.028ZM151.9 41.8H152.866V42.766C152.866 45.104 151.41 47.092 149.268 47.876L148.694 46.952C150.598 46.28 151.9 44.6 151.9 42.766V41.8ZM152.11 41.8H153.062V42.766C153.062 44.516 154.392 46.098 156.268 46.714L155.694 47.624C153.566 46.896 152.11 45.034 152.11 42.766V41.8ZM174.079 41.436H175.241V48.604H174.079V41.436ZM174.919 44.516H177.117V45.482H174.919V44.516ZM170.579 42.248H171.811C171.811 45.44 169.585 47.736 165.861 48.744L165.413 47.82C168.689 46.924 170.579 45.09 170.579 42.766V42.248ZM165.959 42.248H171.223V43.186H165.959V42.248ZM167.275 49.206H175.241V53.924H167.275V49.206ZM174.093 50.144H168.423V52.972H174.093V50.144ZM186.957 41.436H188.119V48.856H186.957V41.436ZM187.797 44.628H189.995V45.608H187.797V44.628ZM183.457 42.248H184.675C184.675 45.44 182.449 47.722 178.753 48.73L178.277 47.82C181.553 46.924 183.457 45.09 183.457 42.752V42.248ZM178.837 42.248H184.101V43.186H178.837V42.248ZM179.901 49.444H188.119V54.092H186.957V50.382H179.901V49.444ZM200.368 41.422H201.53V54.106H200.368V41.422ZM194.852 42.402C196.728 42.402 198.072 44.124 198.072 46.812C198.072 49.514 196.728 51.236 194.852 51.236C192.99 51.236 191.646 49.514 191.646 46.812C191.646 44.124 192.99 42.402 194.852 42.402ZM194.852 43.452C193.62 43.452 192.752 44.768 192.752 46.812C192.752 48.87 193.62 50.214 194.852 50.214C196.098 50.214 196.952 48.87 196.952 46.812C196.952 44.768 196.098 43.452 194.852 43.452ZM45.3374 71.814H46.5134V76.7H45.3374V71.814ZM50.9794 64.436H52.1414V77.106H50.9794V64.436ZM41.7114 72.402L41.5434 71.436C44.1194 71.436 47.3114 71.422 50.2094 71.086L50.2794 71.954C47.3114 72.402 44.2034 72.416 41.7114 72.402ZM46.2754 68.958H49.7054V69.896H46.2754V68.958ZM46.2754 65.36H49.6074V66.312H47.4234V69.378H46.2754V65.36ZM42.3554 65.36H45.6174V66.312H43.5034V69.434H42.3554V65.36ZM42.3554 68.958H42.9294C43.7834 68.958 44.6794 68.944 45.7434 68.692L45.8554 69.63C44.7214 69.882 43.8254 69.896 42.9294 69.896H42.3554V68.958ZM57.8943 65.402C59.7283 65.402 61.0443 67.124 61.0443 69.812C61.0443 72.514 59.7283 74.236 57.8943 74.236C56.0463 74.236 54.7443 72.514 54.7443 69.812C54.7443 67.124 56.0463 65.402 57.8943 65.402ZM57.8943 66.452C56.6763 66.452 55.8503 67.768 55.8503 69.812C55.8503 71.87 56.6763 73.214 57.8943 73.214C59.1123 73.214 59.9383 71.87 59.9383 69.812C59.9383 67.768 59.1123 66.452 57.8943 66.452ZM63.7883 64.422H64.9363V77.106H63.7883V64.422ZM60.6663 69.252H64.2923V70.204H60.6663V69.252ZM76.8072 69.476H79.1452V70.456H76.8072V69.476ZM75.9532 64.422H77.1292V77.092H75.9532V64.422ZM67.8892 65.668H69.0512V73.508H67.8892V65.668ZM67.8892 72.906H68.8972C70.7732 72.906 72.6912 72.78 74.7772 72.346L74.9172 73.312C72.7612 73.76 70.8152 73.886 68.8972 73.886H67.8892V72.906ZM86.0881 67.46H89.9941V68.412H86.0881V67.46ZM86.0881 70.946H89.9941V71.912H86.0881V70.946ZM80.7821 65.668H86.5361V73.9H80.7821V65.668ZM85.3881 66.606H81.9161V72.962H85.3881V66.606ZM89.5461 64.422H90.6941V77.106H89.5461V64.422ZM100.637 64.898C102.527 64.898 103.913 66.046 103.913 67.712C103.913 69.364 102.527 70.512 100.637 70.512C98.7605 70.512 97.3745 69.364 97.3745 67.712C97.3745 66.046 98.7605 64.898 100.637 64.898ZM100.637 65.85C99.4185 65.85 98.4945 66.62 98.4945 67.712C98.4945 68.804 99.4185 69.56 100.637 69.56C101.869 69.56 102.779 68.804 102.779 67.712C102.779 66.62 101.869 65.85 100.637 65.85ZM106.293 64.436H107.469V70.918H106.293V64.436ZM99.2785 71.534H107.469V74.614H100.441V76.518H99.3065V73.746H106.321V72.472H99.2785V71.534ZM99.3065 76H107.889V76.924H99.3065V76ZM115.685 64.646C118.471 64.646 120.137 65.43 120.137 66.844C120.137 68.258 118.471 69.042 115.685 69.042C112.885 69.042 111.233 68.258 111.233 66.844C111.233 65.43 112.885 64.646 115.685 64.646ZM115.685 65.528C113.613 65.528 112.423 66.004 112.423 66.844C112.423 67.684 113.613 68.16 115.685 68.16C117.743 68.16 118.933 67.684 118.933 66.844C118.933 66.004 117.743 65.528 115.685 65.528ZM109.959 69.882H121.397V70.82H109.959V69.882ZM111.345 71.898H119.941V74.754H112.521V76.294H111.373V73.914H118.793V72.794H111.345V71.898ZM111.373 76.042H120.319V76.952H111.373V76.042ZM126.79 74.502H138.256V75.468H126.79V74.502ZM131.942 71.436H133.09V74.824H131.942V71.436ZM131.914 66.032H132.894V66.816C132.894 69.406 130.304 71.366 127.812 71.884L127.336 70.96C129.52 70.596 131.914 68.818 131.914 66.816V66.032ZM132.124 66.032H133.104V66.816C133.104 68.818 135.512 70.554 137.724 70.918L137.262 71.842C134.728 71.338 132.124 69.406 132.124 66.816V66.032ZM127.728 65.584H137.29V66.536H127.728V65.584ZM143.029 65.738H143.995V66.746C143.995 69.07 142.567 71.016 140.439 71.772L139.837 70.862C141.741 70.19 143.029 68.538 143.029 66.746V65.738ZM143.253 65.738H144.219V66.746C144.219 68.454 145.535 69.994 147.411 70.624L146.809 71.534C144.709 70.82 143.253 68.958 143.253 66.746V65.738ZM148.867 64.436H150.043V72.094H148.867V64.436ZM141.587 72.766H150.043V77.092H148.867V73.718H141.587V72.766ZM140.145 65.318H147.075V66.256H140.145V65.318ZM161.116 64.436H162.278V77.092H161.116V64.436ZM161.998 69.63H164.35V70.61H161.998V69.63ZM152.478 66.452H159.94V67.404H152.478V66.452ZM156.258 68.454C158.05 68.454 159.338 69.658 159.338 71.366C159.338 73.074 158.05 74.278 156.258 74.278C154.48 74.278 153.178 73.074 153.178 71.366C153.178 69.658 154.48 68.454 156.258 68.454ZM156.258 69.42C155.11 69.42 154.284 70.218 154.284 71.366C154.284 72.5 155.11 73.312 156.258 73.312C157.406 73.312 158.232 72.5 158.232 71.366C158.232 70.218 157.406 69.42 156.258 69.42ZM155.656 64.59H156.818V66.886H155.656V64.59ZM166.631 65.696H174.779V66.662H166.631V65.696ZM165.427 74.362H176.865V75.328H165.427V74.362ZM169.865 69.84H171.027V74.838H169.865V69.84ZM174.345 65.696H175.493V66.956C175.493 68.524 175.493 70.26 175.031 72.822L173.869 72.668C174.345 70.246 174.345 68.468 174.345 66.956V65.696ZM187.143 67.95H189.957V68.888H187.143V67.95ZM187.045 71.128H189.929V72.066H187.045V71.128ZM191.875 64.436H192.995V77.092H191.875V64.436ZM189.341 64.758H190.433V76.448H189.341V64.758ZM186.513 66.032H187.633C187.633 69.35 186.303 72.332 182.901 74.362L182.229 73.536C185.183 71.744 186.513 69.224 186.513 66.242V66.032ZM182.789 66.032H186.975V66.984H182.789V66.032ZM195.584 65.584H202.99V66.452H195.584V65.584ZM199.294 66.942C201.114 66.942 202.304 67.67 202.304 68.818C202.304 69.98 201.114 70.708 199.294 70.708C197.488 70.708 196.298 69.98 196.298 68.818C196.298 67.67 197.488 66.942 199.294 66.942ZM199.294 67.754C198.16 67.754 197.39 68.16 197.39 68.818C197.39 69.462 198.16 69.896 199.294 69.896C200.456 69.896 201.198 69.462 201.198 68.818C201.198 68.16 200.456 67.754 199.294 67.754ZM198.706 64.352H199.882V66.046H198.706V64.352ZM198.706 70.246H199.882V71.968H198.706V70.246ZM204.306 64.45H205.468V72.92H204.306V64.45ZM196.984 73.508H205.468V77.092H204.306V74.432H196.984V73.508ZM195.332 72.528L195.178 71.59C197.502 71.59 200.638 71.576 203.298 71.212L203.382 72.024C200.624 72.486 197.614 72.528 195.332 72.528ZM216.569 64.436H217.731V77.092H216.569V64.436ZM217.451 69.63H219.803V70.61H217.451V69.63ZM207.931 66.452H215.393V67.404H207.931V66.452ZM211.711 68.454C213.503 68.454 214.791 69.658 214.791 71.366C214.791 73.074 213.503 74.278 211.711 74.278C209.933 74.278 208.631 73.074 208.631 71.366C208.631 69.658 209.933 68.454 211.711 68.454ZM211.711 69.42C210.563 69.42 209.737 70.218 209.737 71.366C209.737 72.5 210.563 73.312 211.711 73.312C212.859 73.312 213.685 72.5 213.685 71.366C213.685 70.218 212.859 69.42 211.711 69.42ZM211.109 64.59H212.271V66.886H211.109V64.59ZM226.578 67.25H230.4V68.216H226.578V67.25ZM226.578 71.254H230.4V72.22H226.578V71.254ZM224.254 65.402C226.088 65.402 227.404 67.124 227.404 69.812C227.404 72.514 226.088 74.236 224.254 74.236C222.406 74.236 221.104 72.514 221.104 69.812C221.104 67.124 222.406 65.402 224.254 65.402ZM224.254 66.452C223.036 66.452 222.196 67.768 222.196 69.812C222.196 71.87 223.036 73.214 224.254 73.214C225.472 73.214 226.312 71.87 226.312 69.812C226.312 67.768 225.472 66.452 224.254 66.452ZM230.148 64.422H231.296V77.106H230.148V64.422ZM65.2775 95.486H66.4255V100.106H65.2775V95.486ZM60.1395 95.08H71.5775V96.046H60.1395V95.08ZM65.2635 89.606H66.2855V89.928C66.2855 92.112 63.9195 93.722 61.2595 94.128L60.8535 93.204C63.1355 92.896 65.2635 91.51 65.2635 89.928V89.606ZM65.4175 89.606H66.4255V89.928C66.4255 91.496 68.5675 92.896 70.8355 93.204L70.4155 94.128C67.7695 93.736 65.4175 92.084 65.4175 89.928V89.606ZM61.2455 88.99H70.4715V89.942H61.2455V88.99ZM65.2775 87.436H66.4255V89.326H65.2775V87.436ZM76.3784 88.822H77.3444V90.11C77.3444 92.434 75.9164 94.38 73.7884 95.15L73.1864 94.226C75.0904 93.554 76.3784 91.916 76.3784 90.11V88.822ZM76.6024 88.822H77.5684V90.11C77.5684 91.818 78.8844 93.358 80.7604 93.988L80.1584 94.898C78.0584 94.184 76.6024 92.336 76.6024 90.11V88.822ZM73.4944 88.486H80.4244V89.424H73.4944V88.486ZM82.2164 87.45H83.3924V96.704H82.2164V87.45ZM75.2584 98.86H83.7704V99.812H75.2584V98.86ZM75.2584 95.836H76.4064V99.28H75.2584V95.836ZM89.2293 88.528H90.1813V90.796C90.1813 93.708 88.6133 96.41 86.5413 97.46L85.8273 96.508C87.7033 95.612 89.2293 93.19 89.2293 90.796V88.528ZM89.4253 88.528H90.3773V90.796C90.3773 93.106 91.8893 95.43 93.7653 96.298L93.0653 97.222C91.0073 96.214 89.4253 93.61 89.4253 90.796V88.528ZM95.0813 87.422H96.2433V100.106H95.0813V87.422ZM104.376 88.752H105.496C105.496 92.406 104.208 95.794 99.6442 98.034L99.0142 97.124C103.018 95.164 104.376 92.336 104.376 88.878V88.752ZM99.7002 88.752H104.964V89.69H99.7002V88.752ZM104.208 91.888V92.784L99.2662 93.246L99.0702 92.224L104.208 91.888ZM107.988 87.436H109.15V100.092H107.988V87.436ZM113.195 91.23H121.791V92.182H113.195V91.23ZM111.641 93.876H123.121V94.828H111.641V93.876ZM113.195 87.898H114.343V91.706H113.195V87.898ZM113.111 98.832H121.861V99.784H113.111V98.832ZM113.111 96.088H114.259V99.084H113.111V96.088ZM130.025 90.95H138.607V91.902H130.025V90.95ZM130.025 87.688H131.173V91.37H130.025V87.688ZM128.471 93.372H139.909V94.31H128.471V93.372ZM134.169 95.444C136.871 95.444 138.509 96.27 138.509 97.754C138.509 99.21 136.871 100.05 134.169 100.05C131.467 100.05 129.829 99.21 129.829 97.754C129.829 96.27 131.467 95.444 134.169 95.444ZM134.169 96.354C132.195 96.354 131.005 96.858 131.005 97.754C131.005 98.622 132.195 99.126 134.169 99.126C136.157 99.126 137.333 98.622 137.333 97.754C137.333 96.858 136.157 96.354 134.169 96.354ZM141.868 93.708H142.778C145.27 93.708 146.502 93.666 148.014 93.4L148.14 94.338C146.572 94.618 145.312 94.66 142.778 94.66H141.868V93.708ZM141.84 88.192H147.3V91.79H143.016V94.282H141.868V90.88H146.152V89.144H141.84V88.192ZM150.59 87.45H151.752V95.22H150.59V87.45ZM148.14 89.312H150.856V90.264H148.14V89.312ZM148.14 91.93H150.856V92.882H148.14V91.93ZM143.282 95.906H151.752V100.12H150.59V96.858H143.282V95.906ZM163.413 87.422H164.575V100.106H163.413V87.422ZM157.897 88.402C159.773 88.402 161.117 90.124 161.117 92.812C161.117 95.514 159.773 97.236 157.897 97.236C156.035 97.236 154.691 95.514 154.691 92.812C154.691 90.124 156.035 88.402 157.897 88.402ZM157.897 89.452C156.665 89.452 155.797 90.768 155.797 92.812C155.797 94.87 156.665 96.214 157.897 96.214C159.143 96.214 159.997 94.87 159.997 92.812C159.997 90.768 159.143 89.452 157.897 89.452ZM174.196 95.22H175.092V95.906C175.092 97.558 174.056 99.224 172.236 99.924L171.648 99.056C173.244 98.482 174.196 97.124 174.196 95.906V95.22ZM174.448 95.22H175.316V95.906C175.316 97.18 176.072 98.538 177.584 99.154L177.094 100.036C175.274 99.322 174.448 97.586 174.448 95.906V95.22ZM178.872 95.22H179.74V95.906C179.74 97.39 178.9 99.266 177.094 100.036L176.604 99.154C178.102 98.468 178.872 96.998 178.872 95.906V95.22ZM179.11 95.22H180.006V95.906C180.006 97.208 180.944 98.51 182.554 99.056L181.966 99.924C180.118 99.252 179.11 97.656 179.11 95.906V95.22ZM180.244 87.45H181.42V94.674H180.244V87.45ZM174.63 88.178C176.548 88.178 177.92 89.382 177.92 91.132C177.92 92.882 176.548 94.072 174.63 94.072C172.712 94.072 171.326 92.882 171.326 91.132C171.326 89.382 172.712 88.178 174.63 88.178ZM174.63 89.144C173.37 89.144 172.46 89.956 172.46 91.132C172.46 92.308 173.37 93.106 174.63 93.106C175.89 93.106 176.8 92.308 176.8 91.132C176.8 89.956 175.89 89.144 174.63 89.144ZM192.479 87.422H193.655V100.106H192.479V87.422ZM193.375 92.42H195.727V93.4H193.375V92.42ZM184.457 95.976H185.451C187.789 95.976 189.427 95.892 191.317 95.542L191.443 96.522C189.497 96.886 187.831 96.956 185.451 96.956H184.457V95.976ZM184.457 88.654H190.337V89.606H185.605V96.41H184.457V88.654ZM197.257 95.9773C197.247 95.4271 197.336 94.9846 197.525 94.6499C197.714 94.3151 197.96 94.0715 198.261 93.919C198.566 93.7666 198.888 93.6903 199.226 93.6903C199.564 93.6903 199.872 93.7649 200.15 93.9141C200.432 94.0599 200.754 94.2902 201.115 94.6051C201.36 94.8172 201.556 94.9664 201.702 95.0526C201.851 95.1387 202.013 95.1818 202.189 95.1818C202.474 95.1818 202.699 95.0791 202.865 94.8736C203.031 94.6648 203.11 94.3632 203.104 93.9688H204.177C204.187 94.5189 204.098 94.9614 203.909 95.2962C203.723 95.6309 203.478 95.8745 203.173 96.027C202.868 96.1795 202.547 96.2557 202.209 96.2557C201.871 96.2557 201.562 96.1828 201.284 96.0369C201.006 95.8878 200.684 95.6558 200.319 95.3409C200.077 95.1288 199.882 94.9796 199.733 94.8935C199.584 94.8073 199.421 94.7642 199.246 94.7642C198.977 94.7642 198.755 94.8587 198.579 95.0476C198.407 95.2332 198.324 95.5431 198.331 95.9773H197.257ZM206.485 95.9773C206.475 95.4271 206.565 94.9846 206.754 94.6499C206.943 94.3151 207.188 94.0715 207.49 93.919C207.795 93.7666 208.116 93.6903 208.454 93.6903C208.792 93.6903 209.1 93.7649 209.379 93.9141C209.661 94.0599 209.982 94.2902 210.343 94.6051C210.589 94.8172 210.784 94.9664 210.93 95.0526C211.079 95.1387 211.242 95.1818 211.417 95.1818C211.702 95.1818 211.928 95.0791 212.093 94.8736C212.259 94.6648 212.339 94.3632 212.332 93.9688H213.406C213.416 94.5189 213.326 94.9614 213.137 95.2962C212.952 95.6309 212.707 95.8745 212.402 96.027C212.097 96.1795 211.775 96.2557 211.437 96.2557C211.099 96.2557 210.791 96.1828 210.512 96.0369C210.234 95.8878 209.913 95.6558 209.548 95.3409C209.306 95.1288 209.11 94.9796 208.961 94.8935C208.812 94.8073 208.65 94.7642 208.474 94.7642C208.206 94.7642 207.984 94.8587 207.808 95.0476C207.636 95.2332 207.553 95.5431 207.559 95.9773H206.485ZM47.3161 111.696H55.4641V112.662H47.3161V111.696ZM46.1121 120.362H57.5501V121.328H46.1121V120.362ZM50.5501 115.84H51.7121V120.838H50.5501V115.84ZM55.0301 111.696H56.1781V112.956C56.1781 114.524 56.1781 116.26 55.7161 118.822L54.5541 118.668C55.0301 116.246 55.0301 114.468 55.0301 112.956V111.696ZM71.4965 110.436H72.6585V123.092H71.4965V110.436ZM72.3785 115.63H74.7305V116.61H72.3785V115.63ZM62.8585 112.452H70.3205V113.404H62.8585V112.452ZM66.6385 114.454C68.4305 114.454 69.7185 115.658 69.7185 117.366C69.7185 119.074 68.4305 120.278 66.6385 120.278C64.8605 120.278 63.5585 119.074 63.5585 117.366C63.5585 115.658 64.8605 114.454 66.6385 114.454ZM66.6385 115.42C65.4905 115.42 64.6645 116.218 64.6645 117.366C64.6645 118.5 65.4905 119.312 66.6385 119.312C67.7865 119.312 68.6125 118.5 68.6125 117.366C68.6125 116.218 67.7865 115.42 66.6385 115.42ZM66.0365 110.59H67.1985V112.886H66.0365V110.59ZM76.4094 111.794H77.5574V119.214H76.4094V111.794ZM76.4094 118.878H77.2214C78.6914 118.878 80.0634 118.808 81.6594 118.486L81.8134 119.48C80.1614 119.816 78.7474 119.886 77.2214 119.886H76.4094V118.878ZM85.4394 110.436H86.5594V123.092H85.4394V110.436ZM79.9234 114.678H83.0874V115.644H79.9234V114.678ZM82.7654 110.73H83.8574V122.448H82.7654V110.73ZM91.4863 116.946H92.6343V120.74H91.4863V116.946ZM96.1623 116.946H97.3243V120.74H96.1623V116.946ZM88.6863 120.516H100.152V121.482H88.6863V120.516ZM94.3983 111.234C97.0723 111.234 98.9903 112.508 98.9903 114.496C98.9903 116.47 97.0723 117.744 94.3983 117.744C91.7103 117.744 89.7923 116.47 89.7923 114.496C89.7923 112.508 91.7103 111.234 94.3983 111.234ZM94.3983 112.158C92.3683 112.158 90.9123 113.082 90.9123 114.496C90.9123 115.896 92.3683 116.82 94.3983 116.82C96.4283 116.82 97.8703 115.896 97.8703 114.496C97.8703 113.082 96.4283 112.158 94.3983 112.158ZM107.113 114.244H115.499V115.21H107.113V114.244ZM111.313 116.106C113.105 116.106 114.421 117.058 114.421 118.416C114.421 119.774 113.105 120.726 111.313 120.726C109.521 120.726 108.191 119.774 108.191 118.416C108.191 117.058 109.521 116.106 111.313 116.106ZM111.313 117.086C110.207 117.086 109.381 117.632 109.381 118.416C109.381 119.2 110.207 119.746 111.313 119.746C112.405 119.746 113.245 119.2 113.245 118.416C113.245 117.632 112.405 117.086 111.313 117.086ZM110.725 112.536H111.887V115.042H110.725V112.536ZM119.992 114.244H128.378V115.21H119.992V114.244ZM124.192 116.106C125.984 116.106 127.3 117.058 127.3 118.416C127.3 119.774 125.984 120.726 124.192 120.726C122.4 120.726 121.07 119.774 121.07 118.416C121.07 117.058 122.4 116.106 124.192 116.106ZM124.192 117.086C123.086 117.086 122.26 117.632 122.26 118.416C122.26 119.2 123.086 119.746 124.192 119.746C125.284 119.746 126.124 119.2 126.124 118.416C126.124 117.632 125.284 117.086 124.192 117.086ZM123.604 112.536H124.766V115.042H123.604V112.536ZM144.76 110.45H145.866V118.108H144.76V110.45ZM142.758 113.754H145.138V114.706H142.758V113.754ZM142.1 110.646H143.206V118.038H142.1V110.646ZM137.256 118.752H145.866V123.092H144.718V119.69H137.256V118.752ZM135.352 111.542H141.246V112.494H135.352V111.542ZM135.268 117.408L135.142 116.442C136.808 116.442 139.538 116.414 141.498 116.148L141.568 117.016C139.552 117.366 136.92 117.408 135.268 117.408ZM136.43 112.172H137.494V116.624H136.43V112.172ZM139.118 112.172H140.182V116.624H139.118V112.172ZM149.127 110.898H158.423V111.85H149.127V110.898ZM149.183 114.58H158.367V115.518H149.183V114.58ZM151.045 111.332H152.207V115.112H151.045V111.332ZM155.357 111.332H156.505V115.112H155.357V111.332ZM148.063 117.044H159.501V117.982H148.063V117.044ZM153.215 115.238H154.363V117.422H153.215V115.238ZM149.337 119.242H158.087V123.092H156.925V120.18H149.337V119.242ZM166.668 110.646C169.454 110.646 171.12 111.43 171.12 112.844C171.12 114.258 169.454 115.042 166.668 115.042C163.868 115.042 162.216 114.258 162.216 112.844C162.216 111.43 163.868 110.646 166.668 110.646ZM166.668 111.528C164.596 111.528 163.406 112.004 163.406 112.844C163.406 113.684 164.596 114.16 166.668 114.16C168.726 114.16 169.916 113.684 169.916 112.844C169.916 112.004 168.726 111.528 166.668 111.528ZM160.942 115.882H172.38V116.82H160.942V115.882ZM162.328 117.898H170.924V120.754H163.504V122.294H162.356V119.914H169.776V118.794H162.328V117.898ZM162.356 122.042H171.302V122.952H162.356V122.042ZM180.866 111.416H181.818V112.424C181.818 114.608 180.376 116.386 178.22 117.072L177.646 116.148C179.564 115.574 180.866 114.09 180.866 112.424V111.416ZM181.076 111.416H182.028V112.424C182.028 113.922 183.288 115.294 185.15 115.826L184.604 116.75C182.49 116.106 181.076 114.426 181.076 112.424V111.416ZM178.038 111.136H184.814V112.088H178.038V111.136ZM186.424 110.436H187.586V116.946H186.424V110.436ZM187.082 113.18H189.448V114.146H187.082V113.18ZM179.55 117.548H187.586V120.614H180.726V122.56H179.578V119.76H186.452V118.458H179.55V117.548ZM179.578 122.07H188.048V122.966H179.578V122.07ZM199.303 110.45H200.465V119.942H199.303V110.45ZM200.101 114.594H202.341V115.574H200.101V114.594ZM190.679 111.976H198.155V112.914H190.679V111.976ZM194.417 113.614C196.209 113.614 197.441 114.552 197.441 115.98C197.441 117.394 196.209 118.332 194.417 118.332C192.611 118.332 191.379 117.394 191.379 115.98C191.379 114.552 192.611 113.614 194.417 113.614ZM194.417 114.524C193.269 114.524 192.485 115.098 192.485 115.98C192.485 116.848 193.269 117.422 194.417 117.422C195.551 117.422 196.335 116.848 196.335 115.98C196.335 115.098 195.551 114.524 194.417 114.524ZM193.829 110.436H194.991V112.466H193.829V110.436ZM192.583 121.86H201.039V122.812H192.583V121.86ZM192.583 119.186H193.745V122.266H192.583V119.186ZM212.084 110.422H213.26V123.106H212.084V110.422ZM212.98 115.42H215.332V116.4H212.98V115.42ZM204.062 118.976H205.056C207.394 118.976 209.032 118.892 210.922 118.542L211.048 119.522C209.102 119.886 207.436 119.956 205.056 119.956H204.062V118.976ZM204.062 111.654H209.942V112.606H205.21V119.41H204.062V111.654ZM217.613 111.696H225.761V112.662H217.613V111.696ZM216.409 120.362H227.847V121.328H216.409V120.362ZM220.847 115.84H222.009V120.838H220.847V115.84ZM225.327 111.696H226.475V112.956C226.475 114.524 226.475 116.26 226.013 118.822L224.851 118.668C225.327 116.246 225.327 114.468 225.327 112.956V111.696ZM64.9858 139.344H73.6798V140.296H64.9858V139.344ZM63.5438 143.53H75.0098V144.51H63.5438V143.53ZM68.6678 139.75H69.8298V143.922H68.6678V139.75ZM64.9858 134.444H73.5538V135.396H66.1478V139.764H64.9858V134.444ZM88.9282 133.436H90.0902V146.092H88.9282V133.436ZM89.8102 138.63H92.1622V139.61H89.8102V138.63ZM80.2902 135.452H87.7522V136.404H80.2902V135.452ZM84.0702 137.454C85.8622 137.454 87.1502 138.658 87.1502 140.366C87.1502 142.074 85.8622 143.278 84.0702 143.278C82.2922 143.278 80.9902 142.074 80.9902 140.366C80.9902 138.658 82.2922 137.454 84.0702 137.454ZM84.0702 138.42C82.9222 138.42 82.0962 139.218 82.0962 140.366C82.0962 141.5 82.9222 142.312 84.0702 142.312C85.2182 142.312 86.0442 141.5 86.0442 140.366C86.0442 139.218 85.2182 138.42 84.0702 138.42ZM83.4682 133.59H84.6302V135.886H83.4682V133.59ZM94.7791 137.23H103.375V138.182H94.7791V137.23ZM93.2251 139.876H104.705V140.828H93.2251V139.876ZM94.7791 133.898H95.9271V137.706H94.7791V133.898ZM94.6951 144.832H103.445V145.784H94.6951V144.832ZM94.6951 142.088H95.8431V145.084H94.6951V142.088ZM115.736 133.436H116.856V146.092H115.736V133.436ZM110.486 138.266H113.664V139.218H110.486V138.266ZM113.188 133.73H114.294V145.448H113.188V133.73ZM106.58 142.074H107.392C109.366 142.074 110.556 142.018 111.956 141.724L112.068 142.69C110.626 142.998 109.408 143.054 107.392 143.054H106.58V142.074ZM106.58 134.976H111.34V135.928H107.728V142.452H106.58V134.976ZM124.166 134.78H132.314V135.718H124.166V134.78ZM122.934 143.278H134.372V144.244H122.934V143.278ZM131.698 134.78H132.832V136.04C132.832 137.664 132.832 139.47 132.356 142.2L131.194 142.088C131.698 139.498 131.698 137.608 131.698 136.04V134.78ZM145.053 133.436H146.215V142.788H145.053V133.436ZM142.323 137.342H145.277V138.308H142.323V137.342ZM141.147 134.416H142.365C142.365 137.678 140.069 140.156 136.499 141.346L135.995 140.408C139.089 139.372 141.147 137.384 141.147 134.878V134.416ZM136.625 134.416H141.903V135.368H136.625V134.416ZM138.221 144.86H146.537V145.812H138.221V144.86ZM138.221 141.85H139.383V145.336H138.221V141.85ZM153.148 134.29H158.958V139.722H153.148V134.29ZM157.824 135.228H154.282V138.784H157.824V135.228ZM161.282 133.436H162.444V140.646H161.282V133.436ZM162.122 136.474H164.32V137.44H162.122V136.474ZM157.908 141.836H158.902V142.172C158.902 144.16 156.816 145.63 154.324 146.05L153.876 145.154C156.06 144.818 157.908 143.586 157.908 142.172V141.836ZM158.132 141.836H159.126V142.172C159.126 143.558 161.002 144.818 163.144 145.168L162.71 146.064C160.232 145.644 158.132 144.118 158.132 142.172V141.836ZM154.366 141.402H162.668V142.326H154.366V141.402ZM166.951 141.024H168.099V142.494H174.287V141.024H175.449V145.924H166.951V141.024ZM168.099 143.39V144.986H174.287V143.39H168.099ZM165.495 139.204H176.933V140.142H165.495V139.204ZM170.633 133.576H171.627V134.136C171.627 136.334 169.177 137.916 166.573 138.308L166.153 137.398C168.435 137.09 170.633 135.732 170.633 134.136V133.576ZM170.815 133.576H171.809V134.136C171.809 135.704 174.035 137.09 176.289 137.398L175.855 138.308C173.279 137.916 170.815 136.306 170.815 134.136V133.576ZM187.586 133.436H188.748V146.092H187.586V133.436ZM179.186 134.668H180.334V142.508H179.186V134.668ZM179.186 141.822H180.222C182.14 141.822 184.142 141.682 186.284 141.234L186.424 142.228C184.226 142.676 182.224 142.83 180.222 142.83H179.186V141.822ZM199.82 133.422H200.996V146.106H199.82V133.422ZM200.716 138.42H203.068V139.4H200.716V138.42ZM191.798 141.976H192.792C195.13 141.976 196.768 141.892 198.658 141.542L198.784 142.522C196.838 142.886 195.172 142.956 192.792 142.956H191.798V141.976ZM191.798 134.654H197.678V135.606H192.946V142.41H191.798V134.654ZM205.374 145.08C205.129 145.08 204.919 144.992 204.743 144.816C204.567 144.64 204.479 144.43 204.479 144.185C204.479 143.939 204.567 143.729 204.743 143.553C204.919 143.378 205.129 143.29 205.374 143.29C205.62 143.29 205.83 143.378 206.006 143.553C206.181 143.729 206.269 143.939 206.269 144.185C206.269 144.347 206.228 144.496 206.145 144.632C206.065 144.768 205.958 144.877 205.822 144.96C205.689 145.04 205.54 145.08 205.374 145.08ZM209.23 145.08C208.984 145.08 208.774 144.992 208.598 144.816C208.423 144.64 208.335 144.43 208.335 144.185C208.335 143.939 208.423 143.729 208.598 143.553C208.774 143.378 208.984 143.29 209.23 143.29C209.475 143.29 209.685 143.378 209.861 143.553C210.037 143.729 210.125 143.939 210.125 144.185C210.125 144.347 210.083 144.496 210 144.632C209.921 144.768 209.813 144.877 209.677 144.96C209.545 145.04 209.395 145.08 209.23 145.08Z" fill="black"/>
</g>
<defs>
<clipPath id="clip0_4_9">
<rect width="267" height="230.8" fill="white"/>
</clipPath>
</defs>
</svg>
