<svg width="267" height="231" viewBox="0 0 267 231" fill="none" xmlns="http://www.w3.org/2000/svg">
<g clip-path="url(#clip0_3_2)">
<path d="M1.00001 136.3C1 187.94 60.32 229.8 133.5 229.8C206.68 229.8 266 187.94 266 136.3C266 84.66 206.68 42.8 133.5 42.8C125.186 42.7967 116.881 43.348 108.64 44.45L42 2.8L69.15 54.56C28.5 70.52 1.00001 101.14 1.00001 136.3Z" fill="white" stroke="#1D1D1B" stroke-width="2" stroke-miterlimit="10"/>
<path d="M93.3604 80.768H94.6724V95.264H93.3604V80.768ZM90.2404 86.048H93.7444V87.136H90.2404V86.048ZM86.4484 82.848H87.5204V85.008C87.5204 88.128 85.7284 91.216 83.4404 92.4L82.6564 91.344C84.7364 90.32 86.4484 87.584 86.4484 85.008V82.848ZM86.7204 82.848H87.7764V85.008C87.7764 87.424 89.4564 90.064 91.5524 91.056L90.7684 92.096C88.4804 90.96 86.7204 87.984 86.7204 85.008V82.848ZM83.1844 82.256H91.0564V83.36H83.1844V82.256ZM99.2631 85.12H109.087V86.208H99.2631V85.12ZM97.4871 88.144H110.607V89.232H97.4871V88.144ZM99.2631 81.312H100.575V85.664H99.2631V81.312ZM99.1671 93.808H109.167V94.896H99.1671V93.808ZM99.1671 90.672H100.479V94.096H99.1671V90.672ZM120.85 88.432H122.194V91.568H120.85V88.432ZM120.85 83.344H121.922V83.664C121.922 86.192 120.274 88.144 117.842 88.912L117.234 87.872C119.378 87.232 120.85 85.616 120.85 83.664V83.344ZM121.106 83.344H122.178V83.664C122.178 85.536 123.698 87.104 125.826 87.728L125.218 88.752C122.786 88.032 121.106 86.112 121.106 83.664V83.344ZM117.57 82.672H125.522V83.744H117.57V82.672ZM120.85 80.88H122.194V83.136H120.85V80.88ZM127.17 80.768H128.498V95.264H127.17V80.768ZM116.978 92.288L116.786 91.168C119.426 91.168 123.074 91.152 126.226 90.672L126.338 91.648C123.09 92.256 119.554 92.272 116.978 92.288ZM137.297 85.92H138.609V88.608H137.297V85.92ZM131.425 87.984H144.497V89.056H131.425V87.984ZM137.953 90.24C141.057 90.24 142.913 91.136 142.913 92.736C142.913 94.336 141.057 95.216 137.953 95.216C134.849 95.216 132.993 94.336 132.993 92.736C132.993 91.136 134.849 90.24 137.953 90.24ZM137.953 91.264C135.681 91.264 134.337 91.792 134.337 92.736C134.337 93.68 135.681 94.192 137.953 94.192C140.241 94.192 141.569 93.68 141.569 92.736C141.569 91.792 140.241 91.264 137.953 91.264ZM137.105 81.968H138.289V82.4C138.289 84.72 135.633 86.288 132.625 86.656L132.145 85.584C134.753 85.328 137.105 84.032 137.105 82.4V81.968ZM137.665 81.968H138.833V82.4C138.833 84.032 141.185 85.328 143.793 85.584L143.313 86.656C140.321 86.288 137.665 84.72 137.665 82.4V81.968ZM132.625 81.44H143.329V82.512H132.625V81.44ZM149.839 82.256H150.927V83.424C150.927 86.064 149.295 88.32 146.879 89.216L146.191 88.16C148.351 87.392 149.839 85.472 149.839 83.424V82.256ZM150.095 82.256H151.167V83.424C151.167 85.28 152.575 87.088 154.671 87.824L153.999 88.88C151.647 88.016 150.095 85.84 150.095 83.424V82.256ZM153.887 84.544H157.103V85.648H153.887V84.544ZM146.607 81.776H154.335V82.848H146.607V81.776ZM148.399 90.224H158.047V95.248H156.719V91.312H148.399V90.224ZM156.719 80.784H158.047V89.44H156.719V80.784ZM167.406 81.696C170.414 81.696 172.654 83.296 172.654 85.696C172.654 88.112 170.414 89.696 167.406 89.696C164.398 89.696 162.142 88.112 162.142 85.696C162.142 83.296 164.398 81.696 167.406 81.696ZM167.406 82.784C165.118 82.784 163.422 83.952 163.422 85.696C163.422 87.424 165.118 88.608 167.406 88.608C169.694 88.608 171.39 87.424 171.39 85.696C171.39 83.952 169.694 82.784 167.406 82.784ZM160.878 92.224H173.982V93.344H160.878V92.224ZM175.597 92.368H188.701V93.472H175.597V92.368ZM181.453 89.264H182.781V92.832H181.453V89.264ZM177.181 81.856H187.085V86.24H178.541V89.136H177.229V85.168H185.773V82.928H177.181V81.856ZM177.229 88.576H187.421V89.664H177.229V88.576ZM83.671 109.784H84.999V124.28H83.671V109.784ZM74.103 119.56H75.271C78.135 119.56 79.991 119.464 82.135 119.064L82.279 120.184C80.071 120.6 78.183 120.68 75.271 120.68H74.103V119.56ZM74.103 111.16H80.935V112.264H75.415V119.976H74.103V111.16ZM91.4618 111.848H92.5178V114.2C92.5178 117.208 90.6778 120.312 88.4218 121.464L87.6538 120.408C89.7178 119.4 91.4618 116.648 91.4618 114.2V111.848ZM91.7018 111.848H92.7578V114.2C92.7578 116.488 94.3898 119.064 96.4858 120.056L95.7338 121.112C93.4458 119.976 91.7018 117.064 91.7018 114.2V111.848ZM88.1658 111.256H95.9578V112.376H88.1658V111.256ZM97.6698 109.784H99.0138V124.248H97.6698V109.784ZM98.6938 115.624H101.382V116.744H98.6938V115.624ZM113.125 109.8H114.469V120.36H113.125V109.8ZM105.173 122.84H114.901V123.928H105.173V122.84ZM105.173 119.272H106.485V123.208H105.173V119.272ZM106.709 110.792C108.869 110.792 110.469 112.264 110.469 114.36C110.469 116.44 108.869 117.928 106.709 117.928C104.549 117.928 102.933 116.44 102.933 114.36C102.933 112.264 104.549 110.792 106.709 110.792ZM106.709 111.944C105.301 111.944 104.229 112.936 104.229 114.36C104.229 115.768 105.301 116.76 106.709 116.76C108.117 116.76 109.189 115.768 109.189 114.36C109.189 112.936 108.117 111.944 106.709 111.944ZM121.815 117.416H134.919V118.504H121.815V117.416ZM127.799 117.96H129.127V121.288H127.799V117.96ZM123.479 122.84H133.463V123.928H123.479V122.84ZM123.479 120.008H124.791V123.256H123.479V120.008ZM123.559 110.232H124.871V112.072H131.863V110.232H133.191V116.024H123.559V110.232ZM124.871 113.112V114.952H131.863V113.112H124.871ZM140.39 110.888C142.518 110.888 144.022 112.856 144.022 115.928C144.022 119.016 142.518 120.984 140.39 120.984C138.262 120.984 136.758 119.016 136.758 115.928C136.758 112.856 138.262 110.888 140.39 110.888ZM140.39 112.088C138.982 112.088 138.022 113.592 138.022 115.928C138.022 118.28 138.982 119.816 140.39 119.816C141.782 119.816 142.758 118.28 142.758 115.928C142.758 113.592 141.782 112.088 140.39 112.088ZM147.302 113.416H149.958V114.536H147.302V113.416ZM147.302 117.72H149.958V118.84H147.302V117.72ZM146.326 109.784H147.67V124.248H146.326V109.784ZM151.253 116.504H164.373V117.512H151.253V116.504ZM152.805 118.68H162.725V121.768H154.165V123.464H152.853V120.856H161.429V119.624H152.805V118.68ZM152.853 123.112H163.189V124.072H152.853V123.112ZM152.917 110.2H162.677V113.208H154.261V114.776H152.949V112.312H161.381V111.144H152.917V110.2ZM152.949 114.456H162.949V115.416H152.949V114.456ZM170.472 117.272H183.544V118.344H170.472V117.272ZM176.36 115.496H177.672V117.768H176.36V115.496ZM176.36 109.736H177.672V111.752H176.36V109.736ZM176.296 111.88H177.464V112.12C177.464 114.488 174.808 115.864 171.64 116.184L171.24 115.16C174.04 114.92 176.296 113.768 176.296 112.12V111.88ZM176.568 111.88H177.736V112.12C177.736 113.768 179.992 114.92 182.792 115.16L182.392 116.184C179.224 115.864 176.568 114.488 176.568 112.12V111.88ZM171.816 111.192H182.216V112.248H171.816V111.192ZM177 119.432C180.12 119.432 181.96 120.28 181.96 121.832C181.96 123.384 180.12 124.216 177 124.216C173.88 124.216 172.039 123.384 172.039 121.832C172.039 120.28 173.88 119.432 177 119.432ZM177 120.44C174.712 120.44 173.384 120.92 173.384 121.832C173.384 122.712 174.712 123.208 177 123.208C179.288 123.208 180.616 122.712 180.616 121.832C180.616 120.92 179.288 120.44 177 120.44ZM185.974 110.568H192.374V111.64H185.974V110.568ZM188.15 113.464H189.462V116.568H188.15V113.464ZM191.846 110.568H193.142V111.272C193.142 112.072 193.142 113.336 192.774 114.968L191.478 114.84C191.846 113.208 191.846 112.072 191.846 111.272V110.568ZM195.126 109.784H196.454V117.56H195.126V109.784ZM195.846 113.208H198.518V114.312H195.846V113.208ZM185.238 117.176L185.11 116.088C187.734 116.088 191.238 116.056 194.166 115.688L194.262 116.616C191.254 117.112 187.846 117.176 185.238 117.176ZM186.998 118.2H196.454V121.544H188.342V123.448H187.014V120.568H195.126V119.224H186.998V118.2ZM187.014 123.08H196.982V124.104H187.014V123.08ZM53.6639 138.784H54.9919V153.248H53.6639V138.784ZM49.4239 140.336H50.7359C50.7359 144.528 48.8479 148.192 44.0159 150.56L43.3119 149.488C47.4879 147.472 49.4239 144.4 49.4239 140.56V140.336ZM43.9679 140.336H49.9999V141.424H43.9679V140.336ZM58.3827 140.096H66.8467V141.088H58.3827V140.096ZM62.6227 141.648C64.7027 141.648 66.0627 142.48 66.0627 143.792C66.0627 145.12 64.7027 145.952 62.6227 145.952C60.5587 145.952 59.1987 145.12 59.1987 143.792C59.1987 142.48 60.5587 141.648 62.6227 141.648ZM62.6227 142.576C61.3267 142.576 60.4467 143.04 60.4467 143.792C60.4467 144.528 61.3267 145.024 62.6227 145.024C63.9507 145.024 64.7987 144.528 64.7987 143.792C64.7987 143.04 63.9507 142.576 62.6227 142.576ZM61.9507 138.688H63.2947V140.624H61.9507V138.688ZM61.9507 145.424H63.2947V147.392H61.9507V145.424ZM68.3507 138.8H69.6787V148.48H68.3507V138.8ZM59.9827 149.152H69.6787V153.248H68.3507V150.208H59.9827V149.152ZM58.0947 148.032L57.9187 146.96C60.5747 146.96 64.1587 146.944 67.1987 146.528L67.2947 147.456C64.1427 147.984 60.7027 148.032 58.0947 148.032ZM77.1143 139.818L73.3643 153.75H72.1371L75.8871 139.818H77.1143ZM88.1646 138.784H89.4926V146.976H88.1646V138.784ZM89.1246 142.304H91.6366V143.408H89.1246V142.304ZM84.1646 139.712H85.5726C85.5726 143.36 83.0286 145.984 78.7726 147.136L78.2606 146.08C82.0046 145.056 84.1646 142.96 84.1646 140.304V139.712ZM78.8846 139.712H84.9006V140.784H78.8846V139.712ZM80.3886 147.664H89.4926V153.056H80.3886V147.664ZM88.1806 148.736H81.7006V151.968H88.1806V148.736ZM92.9953 146H106.067V147.056H92.9953V146ZM98.8673 143.504H100.179V146.416H98.8673V143.504ZM94.4353 148.464H104.467V153.36H103.139V149.552H94.4353V148.464ZM94.6433 143.184H104.563V144.272H94.6433V143.184ZM94.6433 139.36H104.435V140.448H95.9713V143.744H94.6433V139.36ZM117.506 138.784H118.834V153.248H117.506V138.784ZM118.514 144.72H121.202V145.84H118.514V144.72ZM107.634 141.088H116.162V142.176H107.634V141.088ZM111.954 143.376C114.002 143.376 115.474 144.752 115.474 146.704C115.474 148.656 114.002 150.032 111.954 150.032C109.922 150.032 108.434 148.656 108.434 146.704C108.434 144.752 109.922 143.376 111.954 143.376ZM111.954 144.48C110.642 144.48 109.698 145.392 109.698 146.704C109.698 148 110.642 148.928 111.954 148.928C113.266 148.928 114.21 148 114.21 146.704C114.21 145.392 113.266 144.48 111.954 144.48ZM111.266 138.96H112.594V141.584H111.266V138.96ZM124.193 143.12H134.017V144.208H124.193V143.12ZM122.417 146.144H135.537V147.232H122.417V146.144ZM124.193 139.312H125.505V143.664H124.193V139.312ZM124.097 151.808H134.097V152.896H124.097V151.808ZM124.097 148.672H125.409V152.096H124.097V148.672ZM145.492 139.888C147.62 139.888 149.124 141.856 149.124 144.928C149.124 148.016 147.62 149.984 145.492 149.984C143.364 149.984 141.86 148.016 141.86 144.928C141.86 141.856 143.364 139.888 145.492 139.888ZM145.492 141.088C144.084 141.088 143.124 142.592 143.124 144.928C143.124 147.28 144.084 148.816 145.492 148.816C146.884 148.816 147.86 147.28 147.86 144.928C147.86 142.592 146.884 141.088 145.492 141.088ZM151.428 138.784H152.772V153.248H151.428V138.784ZM152.452 144.56H155.14V145.68H152.452V144.56ZM158.05 146.576H167.986V147.648H158.05V146.576ZM156.37 150.288H169.474V151.392H156.37V150.288ZM158.05 140.016H167.826V141.104H159.394V146.912H158.05V140.016ZM158.962 143.248H167.522V144.304H158.962V143.248ZM181.585 138.784H182.913V153.28H181.585V138.784ZM172.017 148.56H173.185C176.049 148.56 177.905 148.464 180.049 148.064L180.193 149.184C177.985 149.6 176.097 149.68 173.185 149.68H172.017V148.56ZM172.017 140.16H178.849V141.264H173.329V148.976H172.017V140.16ZM188.336 148.512H197.984V153.248H196.672V149.6H188.336V148.512ZM186.464 146.048H187.392C189.408 146.048 190.896 145.984 192.656 145.632L192.8 146.704C190.976 147.056 189.456 147.12 187.392 147.12H186.464V146.048ZM186.432 139.872H191.552V143.92H187.744V146.736H186.464V142.912H190.272V140.944H186.432V139.872ZM196.72 138.784H197.984V147.792H196.72V138.784ZM192.112 142.48H194.768V143.584H192.112V142.48ZM193.888 139.056H195.136V147.712H193.888V139.056ZM211.119 138.768H212.431V153.264H211.119V138.768ZM208.111 144.224H211.311V145.328H208.111V144.224ZM201.183 148.688H202.287C205.007 148.688 206.719 148.64 208.751 148.256L208.879 149.344C206.799 149.712 205.039 149.792 202.287 149.792H201.183V148.688ZM201.183 140.096H207.871V141.2H202.495V149.072H201.183V140.096ZM202.159 144.16H207.247V145.232H202.159V144.16ZM225.021 138.768H226.365V153.248H225.021V138.768ZM225.997 144.64H228.669V145.744H225.997V144.64ZM221.325 140.336H222.621C222.621 144.448 220.733 148.16 216.061 150.512L215.325 149.488C219.325 147.456 221.325 144.368 221.325 140.544V140.336ZM215.997 140.336H222.013V141.424H215.997V140.336ZM66.9985 174.008H74.4065V175.096H66.9985V174.008ZM69.9585 174.872H71.3025V178.2H69.9585V174.872ZM66.9985 169.144H74.3265V170.232H68.3265V174.392H66.9985V169.144ZM76.3105 167.768H77.6385V182.264H76.3105V167.768ZM66.1185 179.128L65.9265 178.024C68.7585 178.008 72.3105 177.976 75.3665 177.608L75.4785 178.6C72.3105 179.08 68.8545 179.144 66.1185 179.128ZM82.3413 172.12H92.1653V173.208H82.3413V172.12ZM80.5653 175.144H93.6853V176.232H80.5653V175.144ZM82.3413 168.312H83.6533V172.664H82.3413V168.312ZM82.2453 180.808H92.2453V181.896H82.2453V180.808ZM82.2453 177.672H83.5573V181.096H82.2453V177.672ZM110.36 167.784H111.688V177.576H110.36V167.784ZM107.256 171.864H110.632V172.952H107.256V171.864ZM105.816 168.92H107.208C107.208 172.664 104.744 175.32 100.6 176.664L100.04 175.608C103.704 174.456 105.816 172.28 105.816 169.448V168.92ZM100.728 168.92H106.76V170.008H100.728V168.92ZM106.36 176.328H107.496V176.984C107.496 179.752 104.968 181.624 102.072 182.216L101.544 181.16C104.104 180.696 106.36 179.096 106.36 176.984V176.328ZM106.552 176.328H107.688V176.984C107.688 179.064 109.912 180.664 112.488 181.128L111.928 182.184C109.048 181.608 106.552 179.736 106.552 176.984V176.328ZM125.015 167.768H126.343V182.264H125.015V167.768ZM118.711 168.888C120.855 168.888 122.391 170.856 122.391 173.928C122.391 177.016 120.855 178.984 118.711 178.984C116.583 178.984 115.047 177.016 115.047 173.928C115.047 170.856 116.583 168.888 118.711 168.888ZM118.711 170.088C117.303 170.088 116.311 171.592 116.311 173.928C116.311 176.28 117.303 177.816 118.711 177.816C120.135 177.816 121.111 176.28 121.111 173.928C121.111 171.592 120.135 170.088 118.711 170.088ZM135.402 168.376H145.13V173.304H135.402V168.376ZM143.818 169.448H136.698V172.232H143.818V169.448ZM133.722 175.112H146.794V176.184H133.722V175.112ZM139.61 173.016H140.922V175.512H139.61V173.016ZM135.178 177.672H145.178V182.248H143.85V178.76H135.178V177.672ZM152.072 175.624H153.4V179.752H152.072V175.624ZM156.536 175.624H157.848V179.752H156.536V175.624ZM148.456 179.4H161.56V180.504H148.456V179.4ZM149.592 169.112H160.328V170.2H149.592V169.112ZM149.624 174.904H160.312V175.976H149.624V174.904ZM151.848 169.992H153.176V175.128H151.848V169.992ZM156.776 169.992H158.088V175.128H156.776V169.992ZM173.687 167.784H175.031V175.544H173.687V167.784ZM165.703 176.264H167.015V178.024H173.719V176.264H175.031V182.056H165.703V176.264ZM167.015 179.08V180.984H173.719V179.08H167.015ZM167.271 168.472C169.463 168.472 171.031 169.832 171.031 171.8C171.031 173.784 169.463 175.144 167.271 175.144C165.079 175.144 163.495 173.784 163.495 171.8C163.495 169.832 165.079 168.472 167.271 168.472ZM167.271 169.576C165.831 169.576 164.791 170.488 164.791 171.8C164.791 173.112 165.831 174.024 167.271 174.024C168.711 174.024 169.751 173.112 169.751 171.8C169.751 170.488 168.711 169.576 167.271 169.576ZM188.406 167.784H189.734V182.248H188.406V167.784ZM178.806 169.192H180.118V178.152H178.806V169.192ZM178.806 177.368H179.99C182.182 177.368 184.47 177.208 186.918 176.696L187.078 177.832C184.566 178.344 182.278 178.52 179.99 178.52H178.806V177.368ZM202.389 167.768H203.733V182.264H202.389V167.768ZM203.413 173.48H206.101V174.6H203.413V173.48ZM193.221 177.544H194.357C197.029 177.544 198.901 177.448 201.061 177.048L201.205 178.168C198.981 178.584 197.077 178.664 194.357 178.664H193.221V177.544ZM193.221 169.176H199.941V170.264H194.533V178.04H193.221V169.176ZM208.736 181.091C208.455 181.091 208.215 180.991 208.014 180.79C207.813 180.589 207.713 180.348 207.713 180.068C207.713 179.788 207.813 179.547 208.014 179.347C208.215 179.146 208.455 179.045 208.736 179.045C209.016 179.045 209.257 179.146 209.457 179.347C209.658 179.547 209.759 179.788 209.759 180.068C209.759 180.254 209.711 180.424 209.616 180.58C209.526 180.735 209.402 180.86 209.247 180.955C209.096 181.045 208.925 181.091 208.736 181.091Z" fill="black"/>
</g>
<defs>
<clipPath id="clip0_3_2">
<rect width="267" height="230.8" fill="white" transform="translate(267 230.8) rotate(-180)"/>
</clipPath>
</defs>
</svg>
