<svg width="267" height="231" viewBox="0 0 267 231" fill="none" xmlns="http://www.w3.org/2000/svg">
<g clip-path="url(#clip0_3_2)">
<path d="M1.00001 136.3C1 187.94 60.32 229.8 133.5 229.8C206.68 229.8 266 187.94 266 136.3C266 84.66 206.68 42.8 133.5 42.8C125.186 42.7967 116.881 43.348 108.64 44.45L42 2.8L69.15 54.56C28.5 70.52 1.00001 101.14 1.00001 136.3Z" fill="white" stroke="#1D1D1B" stroke-width="2" stroke-miterlimit="10"/>
<path d="M54.9799 91.926H66.4599V92.878H54.9799V91.926ZM60.1039 92.374H61.2519V97.092H60.1039V92.374ZM56.4219 84.94H57.5839V86.676H63.8419V84.94H64.9899V90.414H56.4219V84.94ZM57.5839 87.614V89.476H63.8419V87.614H57.5839ZM67.8729 94.516H79.3389V95.482H67.8729V94.516ZM72.9969 91.24H74.1589V94.782H72.9969V91.24ZM69.2029 85.486H77.9389V91.45H69.2029V85.486ZM76.8189 86.424H70.3369V90.512H76.8189V86.424ZM89.9498 84.436H91.1118V91.604H89.9498V84.436ZM81.5358 85.164H82.6838V90.316H81.5358V85.164ZM81.5358 89.672H82.5578C84.6718 89.672 86.5618 89.532 88.5778 89.112L88.7458 90.064C86.6458 90.512 84.7418 90.652 82.5578 90.652H81.5358V89.672ZM82.9358 92.22H91.1118V96.924H82.9358V92.22ZM89.9778 93.144H84.0698V95.972H89.9778V93.144ZM95.0727 90.344H103.767V91.296H95.0727V90.344ZM93.6307 94.53H105.097V95.51H93.6307V94.53ZM98.7547 90.75H99.9167V94.922H98.7547V90.75ZM95.0727 85.444H103.641V86.396H96.2347V90.764H95.0727V85.444ZM115.571 90.764H116.733V92.976H115.571V90.764ZM110.433 90.358H121.871V91.296H110.433V90.358ZM116.145 92.626C118.861 92.626 120.485 93.424 120.485 94.852C120.485 96.266 118.861 97.064 116.145 97.064C113.429 97.064 111.805 96.266 111.805 94.852C111.805 93.424 113.429 92.626 116.145 92.626ZM116.145 93.522C114.171 93.522 112.981 93.998 112.981 94.852C112.981 95.692 114.171 96.168 116.145 96.168C118.133 96.168 119.309 95.692 119.309 94.852C119.309 93.998 118.133 93.522 116.145 93.522ZM115.403 85.472H116.439V85.85C116.439 87.894 114.115 89.266 111.497 89.588L111.077 88.664C113.345 88.426 115.403 87.292 115.403 85.85V85.472ZM115.893 85.472H116.915V85.85C116.915 87.292 118.973 88.426 121.241 88.664L120.821 89.588C118.203 89.266 115.893 87.894 115.893 85.85V85.472ZM111.483 85.01H120.849V85.948H111.483V85.01ZM127.299 85.3409L124.018 97.5312H122.944L126.225 85.3409H127.299ZM129.52 85.696H137.668V86.662H129.52V85.696ZM128.316 94.362H139.754V95.328H128.316V94.362ZM132.754 89.84H133.916V94.838H132.754V89.84ZM137.234 85.696H138.382V86.956C138.382 88.524 138.382 90.26 137.92 92.822L136.758 92.668C137.234 90.246 137.234 88.468 137.234 86.956V85.696ZM142.371 85.696H150.519V86.662H142.371V85.696ZM141.195 94.362H152.633V95.328H141.195V94.362ZM143.995 90.176H145.143V94.712H143.995V90.176ZM150.141 85.696H151.289V87.096C151.289 88.706 151.289 90.358 150.855 92.724L149.693 92.584C150.141 90.344 150.141 88.664 150.141 87.096V85.696ZM147.117 90.176H148.265V94.712H147.117V90.176ZM158.726 85.668H164.55V93.914H158.726V85.668ZM163.416 86.606H159.86V92.976H163.416V86.606ZM167.196 84.422H168.358V97.106H167.196V84.422ZM176.014 84.492H176.994V84.954C176.994 87.11 174.53 88.552 171.898 88.888L171.506 87.992C173.802 87.74 176.014 86.522 176.014 84.954V84.492ZM176.21 84.492H177.19V84.954C177.19 86.522 179.402 87.74 181.698 87.992L181.292 88.888C178.674 88.552 176.21 87.11 176.21 84.954V84.492ZM176.014 90.4H177.162V92.332H176.014V90.4ZM170.876 89.714H182.314V90.652H170.876V89.714ZM172.262 91.898H180.858V94.782H173.438V96.308H172.29V93.942H179.71V92.794H172.262V91.898ZM172.29 96.042H181.236V96.952H172.29V96.042ZM190.251 87.418H193.443V88.384H190.251V87.418ZM186.933 85.206H187.871V86.76C187.871 89.21 186.499 91.254 184.385 92.108L183.783 91.184C185.659 90.484 186.933 88.692 186.933 86.76V85.206ZM187.157 85.206H188.095V86.802C188.095 88.566 189.327 90.232 191.161 90.904L190.531 91.8C188.515 91.016 187.157 89.056 187.157 86.802V85.206ZM193.009 84.45H194.171V93.914H193.009V84.45ZM186.037 95.86H194.479V96.812H186.037V95.86ZM186.037 92.864H187.199V96.308H186.037V92.864ZM199.294 85.22H200.218V86.914C200.218 88.804 199.126 90.792 197.264 91.618L196.634 90.708C198.3 89.98 199.294 88.342 199.294 86.914V85.22ZM199.476 85.22H200.4V86.914C200.4 88.314 201.352 89.742 202.976 90.372L202.346 91.254C200.526 90.526 199.476 88.776 199.476 86.914V85.22ZM206.196 84.45H207.302V92.248H206.196V84.45ZM204.18 87.824H206.574V88.776H204.18V87.824ZM203.48 84.688H204.586V91.842H203.48V84.688ZM203.144 92.528C205.748 92.528 207.372 93.368 207.372 94.81C207.372 96.238 205.748 97.064 203.144 97.064C200.526 97.064 198.93 96.238 198.93 94.81C198.93 93.368 200.526 92.528 203.144 92.528ZM203.144 93.438C201.24 93.438 200.064 93.942 200.064 94.81C200.064 95.664 201.24 96.168 203.144 96.168C205.048 96.168 206.21 95.664 206.21 94.81C206.21 93.942 205.048 93.438 203.144 93.438ZM218.725 84.436H219.887V91.604H218.725V84.436ZM210.311 85.164H211.459V90.316H210.311V85.164ZM210.311 89.672H211.333C213.447 89.672 215.337 89.532 217.353 89.112L217.521 90.064C215.421 90.512 213.517 90.652 211.333 90.652H210.311V89.672ZM211.711 92.22H219.887V96.924H211.711V92.22ZM218.753 93.144H212.845V95.972H218.753V93.144ZM62.7424 109.422H63.9044V122.106H62.7424V109.422ZM57.2264 110.402C59.1024 110.402 60.4464 112.124 60.4464 114.812C60.4464 117.514 59.1024 119.236 57.2264 119.236C55.3644 119.236 54.0204 117.514 54.0204 114.812C54.0204 112.124 55.3644 110.402 57.2264 110.402ZM57.2264 111.452C55.9944 111.452 55.1264 112.768 55.1264 114.812C55.1264 116.87 55.9944 118.214 57.2264 118.214C58.4724 118.214 59.3264 116.87 59.3264 114.812C59.3264 112.768 58.4724 111.452 57.2264 111.452ZM69.7693 110.528H70.7213V112.796C70.7213 115.708 69.1533 118.41 67.0813 119.46L66.3673 118.508C68.2433 117.612 69.7693 115.19 69.7693 112.796V110.528ZM69.9653 110.528H70.9173V112.796C70.9173 115.106 72.4293 117.43 74.3053 118.298L73.6053 119.222C71.5473 118.214 69.9653 115.61 69.9653 112.796V110.528ZM75.6213 109.422H76.7833V122.106H75.6213V109.422ZM80.5202 110.696H88.6682V111.662H80.5202V110.696ZM79.3162 119.362H90.7542V120.328H79.3162V119.362ZM83.7542 114.84H84.9162V119.838H83.7542V114.84ZM88.2342 110.696H89.3822V111.956C89.3822 113.524 89.3822 115.26 88.9202 117.822L87.7582 117.668C88.2342 115.246 88.2342 113.468 88.2342 111.956V110.696ZM105.387 109.422H106.535V122.106H105.387V109.422ZM102.657 114.042H105.723V114.994H102.657V114.042ZM99.3386 111.242H100.277V113.132C100.277 115.862 98.7086 118.564 96.7066 119.6L96.0206 118.676C97.8406 117.78 99.3386 115.386 99.3386 113.132V111.242ZM99.5766 111.242H100.501V113.132C100.501 115.246 101.971 117.556 103.805 118.424L103.119 119.334C101.117 118.34 99.5766 115.736 99.5766 113.132V111.242ZM96.4826 110.724H103.371V111.69H96.4826V110.724ZM110.454 115.344H119.148V116.296H110.454V115.344ZM109.012 119.53H120.478V120.51H109.012V119.53ZM114.136 115.75H115.298V119.922H114.136V115.75ZM110.454 110.444H119.022V111.396H111.616V115.764H110.454V110.444ZM135.012 109.436H136.174V122.12H135.012V109.436ZM126.64 117.99H127.662C130.168 117.99 131.792 117.906 133.668 117.556L133.794 118.536C131.862 118.9 130.21 118.97 127.662 118.97H126.64V117.99ZM126.64 110.64H132.618V111.606H127.788V118.354H126.64V110.64ZM141.829 111.242H142.753V113.3C142.753 115.932 141.143 118.648 139.169 119.656L138.497 118.732C140.303 117.85 141.829 115.442 141.829 113.3V111.242ZM142.039 111.242H142.963V113.3C142.963 115.302 144.391 117.556 146.225 118.424L145.567 119.348C143.565 118.354 142.039 115.806 142.039 113.3V111.242ZM138.945 110.724H145.763V111.704H138.945V110.724ZM147.261 109.436H148.437V122.092H147.261V109.436ZM148.157 114.546H150.509V115.526H148.157V114.546ZM160.784 109.45H161.96V118.69H160.784V109.45ZM153.826 120.86H162.338V121.812H153.826V120.86ZM153.826 117.738H154.974V121.182H153.826V117.738ZM155.17 110.318C157.06 110.318 158.46 111.606 158.46 113.44C158.46 115.26 157.06 116.562 155.17 116.562C153.28 116.562 151.866 115.26 151.866 113.44C151.866 111.606 153.28 110.318 155.17 110.318ZM155.17 111.326C153.938 111.326 153 112.194 153 113.44C153 114.672 153.938 115.54 155.17 115.54C156.402 115.54 157.34 114.672 157.34 113.44C157.34 112.194 156.402 111.326 155.17 111.326ZM171.171 112.922H174.363V113.874H171.171V112.922ZM173.705 109.45H174.867V118.718H173.705V109.45ZM166.789 120.86H175.217V121.812H166.789V120.86ZM166.789 117.906H167.951V121.35H166.789V117.906ZM167.685 111.018H168.637V112.04C168.637 114.336 167.209 116.324 165.095 117.108L164.493 116.184C166.383 115.512 167.685 113.832 167.685 112.04V111.018ZM167.909 111.018H168.847V112.026C168.847 113.664 170.079 115.26 171.913 115.904L171.325 116.814C169.267 116.072 167.909 114.168 167.909 112.026V111.018ZM164.857 110.472H171.619V111.41H164.857V110.472ZM183.014 117.416C185.702 117.416 187.424 118.298 187.424 119.754C187.424 121.196 185.702 122.064 183.014 122.064C180.312 122.064 178.604 121.196 178.604 119.754C178.604 118.298 180.312 117.416 183.014 117.416ZM183.014 118.326C181.026 118.326 179.752 118.872 179.752 119.754C179.752 120.622 181.026 121.168 183.014 121.168C185.002 121.168 186.262 120.622 186.262 119.754C186.262 118.872 185.002 118.326 183.014 118.326ZM178.702 110.066H186.85V111.018H178.702V110.066ZM177.344 115.33H188.768V116.268H177.344V115.33ZM182.034 112.894H183.182V115.596H182.034V112.894ZM186.178 110.066H187.312V111.144C187.312 112.166 187.312 113.188 186.976 114.504L185.828 114.364C186.178 113.062 186.178 112.138 186.178 111.144V110.066ZM199.406 109.422H200.568V122.106H199.406V109.422ZM193.89 110.402C195.766 110.402 197.11 112.124 197.11 114.812C197.11 117.514 195.766 119.236 193.89 119.236C192.028 119.236 190.684 117.514 190.684 114.812C190.684 112.124 192.028 110.402 193.89 110.402ZM193.89 111.452C192.658 111.452 191.79 112.768 191.79 114.812C191.79 116.87 192.658 118.214 193.89 118.214C195.136 118.214 195.99 116.87 195.99 114.812C195.99 112.768 195.136 111.452 193.89 111.452ZM211.669 109.422H212.831V122.106H211.669V109.422ZM212.551 114.462H214.903V115.442H212.551V114.462ZM203.605 118.088H204.613C206.993 118.088 208.645 118.004 210.563 117.64L210.689 118.606C208.715 118.956 207.035 119.054 204.613 119.054H203.605V118.088ZM203.577 110.612H209.303V115.148H204.753V118.48H203.605V114.196H208.155V111.564H203.577V110.612ZM218.104 119.608L218.025 120.145C217.968 120.523 217.882 120.927 217.766 121.358C217.653 121.789 217.536 122.195 217.413 122.576C217.29 122.957 217.189 123.26 217.11 123.486H216.215C216.258 123.274 216.314 122.994 216.384 122.646C216.454 122.298 216.523 121.908 216.593 121.477C216.666 121.05 216.725 120.612 216.772 120.165L216.831 119.608H218.104ZM45.8574 135.668H51.6814V143.914H45.8574V135.668ZM50.5474 136.606H46.9914V142.976H50.5474V136.606ZM54.3274 134.422H55.4894V147.106H54.3274V134.422ZM63.1463 134.492H64.1263V134.954C64.1263 137.11 61.6623 138.552 59.0303 138.888L58.6383 137.992C60.9343 137.74 63.1463 136.522 63.1463 134.954V134.492ZM63.3423 134.492H64.3223V134.954C64.3223 136.522 66.5343 137.74 68.8303 137.992L68.4243 138.888C65.8063 138.552 63.3423 137.11 63.3423 134.954V134.492ZM63.1463 140.4H64.2943V142.332H63.1463V140.4ZM58.0083 139.714H69.4463V140.652H58.0083V139.714ZM59.3943 141.898H67.9903V144.782H60.5703V146.308H59.4223V143.942H66.8423V142.794H59.3943V141.898ZM59.4223 146.042H68.3683V146.952H59.4223V146.042ZM76.0252 139.35H78.4192V140.316H76.0252V139.35ZM80.5332 134.436H81.6532V147.092H80.5332V134.436ZM78.0272 134.702H79.1332V146.462H78.0272V134.702ZM73.7432 135.486C75.3812 135.486 76.4452 137.18 76.4452 139.896C76.4452 142.612 75.3812 144.306 73.7432 144.306C72.1052 144.306 71.0552 142.612 71.0552 139.896C71.0552 137.18 72.1052 135.486 73.7432 135.486ZM73.7432 136.564C72.7492 136.564 72.1192 137.852 72.1192 139.896C72.1192 141.94 72.7492 143.228 73.7432 143.228C74.7512 143.228 75.3812 141.94 75.3812 139.896C75.3812 137.852 74.7512 136.564 73.7432 136.564ZM89.1176 140.176H97.8816V141.128H89.1176V140.176ZM87.7176 144.502H99.1836V145.468H87.7176V144.502ZM92.8556 140.764H94.0036V144.81H92.8556V140.764ZM89.1176 135.5H90.2796V140.596H89.1176V135.5ZM105.72 140.736H106.882V142.654H105.72V140.736ZM100.596 140.05H112.02V140.946H100.596V140.05ZM105.734 134.352H106.882V135.892H105.734V134.352ZM105.678 136.004H106.7V136.2C106.7 138.188 104.334 139.252 101.534 139.49L101.198 138.594C103.69 138.44 105.678 137.558 105.678 136.2V136.004ZM105.916 136.004H106.938V136.2C106.938 137.558 108.926 138.44 111.404 138.594L111.068 139.49C108.268 139.252 105.916 138.188 105.916 136.2V136.004ZM101.758 135.542H110.858V136.424H101.758V135.542ZM101.968 142.094H110.564V144.88H103.144V146.406H101.996V144.054H109.416V142.976H101.968V142.094ZM101.996 146.07H110.942V146.952H101.996V146.07ZM114.651 138.566H120.755V139.518H114.651V138.566ZM117.087 139.14H118.249V141.674H117.087V139.14ZM114.651 135.262H120.671V136.214H115.813V138.986H114.651V135.262ZM122.659 134.436H123.821V143.9H122.659V134.436ZM115.645 145.86H124.241V146.812H115.645V145.86ZM115.645 143.284H116.793V146.266H115.645V143.284ZM113.685 142.304L113.531 141.352C115.967 141.352 119.047 141.296 121.651 140.988L121.721 141.842C119.047 142.234 116.051 142.304 113.685 142.304ZM142.867 134.436H144.029V144.348H142.867V134.436ZM143.539 138.846H145.877V139.812H143.539V138.846ZM136.021 145.86H144.477V146.812H136.021V145.86ZM136.021 143.69H137.183V146.154H136.021V143.69ZM137.533 140.624H138.695V142.346H137.533V140.624ZM134.299 142.892L134.145 141.954C136.385 141.954 139.507 141.912 142.111 141.506L142.209 142.332C139.535 142.822 136.497 142.878 134.299 142.892ZM134.467 135.668H141.733V136.55H134.467V135.668ZM138.107 137.068C139.885 137.068 141.047 137.81 141.047 139.014C141.047 140.232 139.885 140.974 138.107 140.974C136.329 140.974 135.153 140.232 135.153 139.014C135.153 137.81 136.329 137.068 138.107 137.068ZM138.107 137.894C136.973 137.894 136.245 138.328 136.245 139.014C136.245 139.714 136.973 140.134 138.107 140.134C139.227 140.134 139.955 139.714 139.955 139.014C139.955 138.328 139.227 137.894 138.107 137.894ZM137.533 134.38H138.695V136.06H137.533V134.38ZM153.156 136.76H156.544V137.712H153.156V136.76ZM153.044 139.392H156.46V140.344H153.044V139.392ZM156.348 134.436H157.51V142.024H156.348V134.436ZM152.386 135.388H153.632C153.632 138.65 151.378 140.932 147.738 142.024L147.262 141.086C150.496 140.148 152.386 138.286 152.386 135.892V135.388ZM147.92 135.388H153.184V136.34H147.92V135.388ZM153.394 142.164C155.956 142.164 157.58 143.074 157.58 144.6C157.58 146.126 155.956 147.036 153.394 147.036C150.832 147.036 149.208 146.126 149.208 144.6C149.208 143.074 150.832 142.164 153.394 142.164ZM153.394 143.074C151.546 143.074 150.356 143.648 150.356 144.6C150.356 145.552 151.546 146.112 153.394 146.112C155.256 146.112 156.446 145.552 156.446 144.6C156.446 143.648 155.256 143.074 153.394 143.074ZM169.171 134.422H170.333V147.106H169.171V134.422ZM163.655 135.402C165.531 135.402 166.875 137.124 166.875 139.812C166.875 142.514 165.531 144.236 163.655 144.236C161.793 144.236 160.449 142.514 160.449 139.812C160.449 137.124 161.793 135.402 163.655 135.402ZM163.655 136.452C162.423 136.452 161.555 137.768 161.555 139.812C161.555 141.87 162.423 143.214 163.655 143.214C164.901 143.214 165.755 141.87 165.755 139.812C165.755 137.768 164.901 136.452 163.655 136.452ZM176.79 141.786H188.27V142.738H176.79V141.786ZM181.914 142.36H183.062V147.092H181.914V142.36ZM178.246 135.136H186.786V140.078H178.246V135.136ZM185.652 136.074H179.394V139.14H185.652V136.074ZM196.374 138.146H199.174V139.112H196.374V138.146ZM191.642 142.808H200.084V147.106H198.922V143.76H191.642V142.808ZM198.922 134.436H200.084V142.136H198.922V134.436ZM192.832 136.69H193.784V137.222C193.784 139.448 192.384 141.296 190.27 142.024L189.71 141.114C191.572 140.484 192.832 138.93 192.832 137.222V136.69ZM193.042 136.69H193.994V137.222C193.994 138.832 195.282 140.302 197.144 140.876L196.598 141.786C194.47 141.114 193.042 139.336 193.042 137.222V136.69ZM190.032 135.962H196.78V136.9H190.032V135.962ZM192.832 134.38H193.994V136.452H192.832V134.38ZM208.417 142.654H216.873V147.092H215.697V143.592H208.417V142.654ZM215.697 134.436H216.873V141.954H215.697V134.436ZM210.083 135.178C211.987 135.178 213.373 136.41 213.373 138.188C213.373 139.952 211.987 141.17 210.083 141.17C208.165 141.17 206.779 139.952 206.779 138.188C206.779 136.41 208.165 135.178 210.083 135.178ZM210.083 136.172C208.823 136.172 207.913 136.984 207.913 138.188C207.913 139.378 208.823 140.204 210.083 140.204C211.343 140.204 212.253 139.378 212.253 138.188C212.253 136.984 211.343 136.172 210.083 136.172ZM224.502 134.604H225.496V135.164C225.496 137.404 223.046 139.014 220.456 139.42L220.022 138.51C222.304 138.202 224.502 136.802 224.502 135.164V134.604ZM224.684 134.604H225.678V135.164C225.678 136.76 227.904 138.202 230.144 138.51L229.71 139.42C227.134 139.014 224.684 137.362 224.684 135.164V134.604ZM224.502 141.156H225.65V143.34H224.502V141.156ZM219.364 140.428H230.802V141.366H219.364V140.428ZM220.638 142.962H229.388V147.092H228.226V143.9H220.638V142.962ZM53.8364 159.436H54.9984V166.786H53.8364V159.436ZM54.4944 162.656H56.8744V163.636H54.4944V162.656ZM47.0464 167.346H48.1804V168.69H53.8504V167.346H54.9984V171.924H47.0464V167.346ZM48.1804 169.586V170.986H53.8504V169.586H48.1804ZM45.2124 160.724H52.6884V161.676H45.2124V160.724ZM48.9504 162.25C50.7564 162.25 51.9744 163.132 51.9744 164.476C51.9744 165.82 50.7564 166.702 48.9504 166.702C47.1304 166.702 45.9124 165.82 45.9124 164.476C45.9124 163.132 47.1304 162.25 48.9504 162.25ZM48.9504 163.132C47.7884 163.132 47.0184 163.664 47.0184 164.476C47.0184 165.288 47.7884 165.82 48.9504 165.82C50.0844 165.82 50.8684 165.288 50.8684 164.476C50.8684 163.664 50.0844 163.132 48.9504 163.132ZM48.3624 159.31H49.5244V161.242H48.3624V159.31ZM67.2613 159.436H68.4233V172.092H67.2613V159.436ZM58.8613 160.668H60.0093V168.508H58.8613V160.668ZM58.8613 167.822H59.8973C61.8153 167.822 63.8173 167.682 65.9593 167.234L66.0993 168.228C63.9013 168.676 61.8993 168.83 59.8973 168.83H58.8613V167.822ZM79.4962 159.422H80.6722V172.106H79.4962V159.422ZM80.3922 164.42H82.7442V165.4H80.3922V164.42ZM71.4742 167.976H72.4682C74.8062 167.976 76.4442 167.892 78.3342 167.542L78.4602 168.522C76.5142 168.886 74.8482 168.956 72.4682 168.956H71.4742V167.976ZM71.4742 160.654H77.3542V161.606H72.6222V168.41H71.4742V160.654ZM85.0501 171.08C84.8048 171.08 84.5943 170.992 84.4187 170.816C84.243 170.64 84.1552 170.43 84.1552 170.185C84.1552 169.939 84.243 169.729 84.4187 169.553C84.5943 169.378 84.8048 169.29 85.0501 169.29C85.2953 169.29 85.5058 169.378 85.6815 169.553C85.8571 169.729 85.945 169.939 85.945 170.185C85.945 170.347 85.9035 170.496 85.8207 170.632C85.7411 170.768 85.6334 170.877 85.4975 170.96C85.3649 171.04 85.2158 171.08 85.0501 171.08ZM91.6141 169.516H103.08V170.482H91.6141V169.516ZM96.7381 166.492H97.9001V169.796H96.7381V166.492ZM92.9581 160.332H94.1061V162.586H100.56V160.332H101.708V166.8H92.9581V160.332ZM94.1061 163.524V165.848H100.56V163.524H94.1061ZM106.033 163.23H114.629V164.182H106.033V163.23ZM104.479 165.876H115.959V166.828H104.479V165.876ZM106.033 159.898H107.181V163.706H106.033V159.898ZM105.949 170.832H114.699V171.784H105.949V170.832ZM105.949 168.088H107.097V171.084H105.949V168.088ZM122.863 163.272H131.459V164.196H122.863V163.272ZM122.863 159.912H124.011V163.65H122.863V159.912ZM121.309 165.68H132.747V166.632H121.309V165.68ZM126.545 166.296H127.693V169.236H126.545V166.296ZM122.765 170.86H131.529V171.812H122.765V170.86ZM122.765 168.116H123.913V171.308H122.765V168.116ZM143.372 159.422H144.534V172.106H143.372V159.422ZM137.856 160.402C139.732 160.402 141.076 162.124 141.076 164.812C141.076 167.514 139.732 169.236 137.856 169.236C135.994 169.236 134.65 167.514 134.65 164.812C134.65 162.124 135.994 160.402 137.856 160.402ZM137.856 161.452C136.624 161.452 135.756 162.768 135.756 164.812C135.756 166.87 136.624 168.214 137.856 168.214C139.102 168.214 139.956 166.87 139.956 164.812C139.956 162.768 139.102 161.452 137.856 161.452ZM159.783 159.436H160.931V172.092H159.783V159.436ZM160.567 164.644H162.821V165.624H160.567V164.644ZM153.721 160.794H154.785C154.785 163.846 154.141 166.8 151.873 169.25L150.935 168.592C153.021 166.422 153.721 163.79 153.721 160.92V160.794ZM151.341 160.794H154.155V161.76H151.341V160.794ZM157.165 160.794H158.243C158.243 163.86 157.809 167.332 155.485 170.09L154.547 169.446C156.689 166.968 157.165 163.832 157.165 160.906V160.794ZM155.191 160.794H157.641V161.76H155.191V160.794ZM172.438 159.422H173.614V172.106H172.438V159.422ZM173.334 164.42H175.686V165.4H173.334V164.42ZM164.416 167.976H165.41C167.748 167.976 169.386 167.892 171.276 167.542L171.402 168.522C169.456 168.886 167.79 168.956 165.41 168.956H164.416V167.976ZM164.416 160.654H170.296V161.606H165.564V168.41H164.416V160.654ZM176.749 165.904H188.229V166.856H176.749V165.904ZM181.901 164.378H183.062V166.38H181.901V164.378ZM178.289 167.486H179.437V168.704H185.611V167.486H186.759V171.924H178.289V167.486ZM179.437 169.614V171H185.611V169.614H179.437ZM178.205 159.702H186.745V162.614H179.381V164.28H178.233V161.746H185.611V160.598H178.205V159.702ZM178.233 163.804H187.025V164.714H178.233V163.804ZM198.839 159.436H200.001V168.634H198.839V159.436ZM195.115 160.388H196.333C196.333 163.678 194.023 166.114 190.313 167.276L189.837 166.324C193.099 165.33 195.115 163.356 195.115 160.878V160.388ZM190.509 160.388H195.773V161.354H190.509V160.388ZM191.797 170.86H200.323V171.826H191.797V170.86ZM191.797 167.892H192.959V171.21H191.797V167.892ZM215.026 159.436H216.188V172.092H215.026V159.436ZM215.908 164.63H218.26V165.61H215.908V164.63ZM206.388 161.452H213.85V162.404H206.388V161.452ZM210.168 163.454C211.96 163.454 213.248 164.658 213.248 166.366C213.248 168.074 211.96 169.278 210.168 169.278C208.39 169.278 207.088 168.074 207.088 166.366C207.088 164.658 208.39 163.454 210.168 163.454ZM210.168 164.42C209.02 164.42 208.194 165.218 208.194 166.366C208.194 167.5 209.02 168.312 210.168 168.312C211.316 168.312 212.142 167.5 212.142 166.366C212.142 165.218 211.316 164.42 210.168 164.42ZM209.566 159.59H210.728V161.886H209.566V159.59ZM222.683 161.242H223.621V163.3C223.621 165.974 222.011 168.662 219.995 169.656L219.323 168.732C221.157 167.864 222.683 165.484 222.683 163.3V161.242ZM222.907 161.242H223.845V163.3C223.845 165.442 225.371 167.626 227.233 168.424L226.575 169.348C224.531 168.396 222.907 165.932 222.907 163.3V161.242ZM219.743 160.724H226.813V161.704H219.743V160.724ZM228.521 159.436H229.683V172.092H228.521V159.436ZM77.2024 185.57H83.0124V191.436H77.2024V185.57ZM81.8784 186.508H78.3364V190.498H81.8784V186.508ZM85.3364 184.422H86.4984V193.704H85.3364V184.422ZM86.1344 188.286H88.3744V189.252H86.1344V188.286ZM78.6164 195.86H87.0724V196.812H78.6164V195.86ZM78.6164 192.822H79.7784V196.266H78.6164V192.822ZM97.0428 184.898C98.9328 184.898 100.319 186.046 100.319 187.712C100.319 189.364 98.9328 190.512 97.0428 190.512C95.1668 190.512 93.7808 189.364 93.7808 187.712C93.7808 186.046 95.1668 184.898 97.0428 184.898ZM97.0428 185.85C95.8248 185.85 94.9008 186.62 94.9008 187.712C94.9008 188.804 95.8248 189.56 97.0428 189.56C98.2748 189.56 99.1848 188.804 99.1848 187.712C99.1848 186.62 98.2748 185.85 97.0428 185.85ZM102.699 184.436H103.875V190.918H102.699V184.436ZM95.6848 191.534H103.875V194.614H96.8468V196.518H95.7128V193.746H102.727V192.472H95.6848V191.534ZM95.7128 196H104.295V196.924H95.7128V196ZM115.032 184.394H116.194V191.38H115.032V184.394ZM115.704 187.432H118.07V188.412H115.704V187.432ZM108.158 192.024H116.194V194.852H109.334V196.392H108.186V194.012H115.06V192.906H108.158V192.024ZM108.186 196.056H116.656V196.952H108.186V196.056ZM106.408 185.57H113.884V186.48H106.408V185.57ZM110.146 187.04C111.966 187.04 113.17 187.838 113.17 189.126C113.17 190.4 111.966 191.184 110.146 191.184C108.298 191.184 107.108 190.4 107.108 189.126C107.108 187.838 108.298 187.04 110.146 187.04ZM110.146 187.894C108.97 187.894 108.214 188.37 108.214 189.126C108.214 189.868 108.97 190.344 110.146 190.344C111.308 190.344 112.064 189.868 112.064 189.126C112.064 188.37 111.308 187.894 110.146 187.894ZM109.558 184.296H110.72V186.2H109.558V184.296ZM126.511 184.688H127.603V193.438H126.511V184.688ZM127.169 188.118H129.507V189.07H127.169V188.118ZM119.637 190.54H120.127C120.617 190.54 121.443 190.54 122.395 190.302L122.521 191.254C121.471 191.492 120.673 191.506 120.127 191.506H119.637V190.54ZM119.637 185.668H122.269V186.606H120.701V190.848H119.637V185.668ZM122.913 190.54H123.417C124.061 190.54 124.887 190.526 125.867 190.288L125.979 191.254C124.929 191.492 124.103 191.506 123.417 191.506H122.913V190.54ZM122.913 185.668H125.671V186.606H123.977V190.848H122.913V185.668ZM129.017 184.436H130.109V193.83H129.017V184.436ZM121.597 195.86H130.459V196.812H121.597V195.86ZM121.597 192.766H122.759V196.378H121.597V192.766ZM139.183 185.794H140.135V186.816C140.135 189.14 138.735 191.086 136.607 191.856L136.019 190.932C137.923 190.26 139.183 188.622 139.183 186.816V185.794ZM139.393 185.794H140.345V186.802C140.345 188.454 141.549 189.938 143.411 190.554L142.851 191.464C140.737 190.764 139.393 188.958 139.393 186.802V185.794ZM136.369 185.374H143.131V186.326H136.369V185.374ZM144.727 184.436H145.889V192.066H144.727V184.436ZM145.567 187.642H147.765V188.622H145.567V187.642ZM141.857 192.402C144.433 192.402 146.015 193.256 146.015 194.726C146.015 196.21 144.433 197.064 141.857 197.064C139.281 197.064 137.699 196.21 137.699 194.726C137.699 193.256 139.281 192.402 141.857 192.402ZM141.857 193.34C139.981 193.34 138.833 193.844 138.833 194.726C138.833 195.622 139.981 196.154 141.857 196.154C143.733 196.154 144.881 195.622 144.881 194.726C144.881 193.844 143.733 193.34 141.857 193.34ZM155.702 187.6H158.516V188.566H155.702V187.6ZM158.194 184.436H159.356V191.842H158.194V184.436ZM151.152 192.458H159.356V196.924H151.152V192.458ZM158.222 193.382H152.286V195.986H158.222V193.382ZM152.174 185.64H153.126V186.662C153.126 188.972 151.698 190.946 149.584 191.73L148.982 190.806C150.872 190.134 152.174 188.454 152.174 186.662V185.64ZM152.398 185.64H153.336V186.648C153.336 188.286 154.568 189.868 156.402 190.512L155.814 191.436C153.756 190.694 152.398 188.776 152.398 186.648V185.64ZM149.346 185.248H156.108V186.186H149.346V185.248ZM171.017 184.422H172.179V197.106H171.017V184.422ZM165.501 185.402C167.377 185.402 168.721 187.124 168.721 189.812C168.721 192.514 167.377 194.236 165.501 194.236C163.639 194.236 162.295 192.514 162.295 189.812C162.295 187.124 163.639 185.402 165.501 185.402ZM165.501 186.452C164.269 186.452 163.401 187.768 163.401 189.812C163.401 191.87 164.269 193.214 165.501 193.214C166.747 193.214 167.601 191.87 167.601 189.812C167.601 187.768 166.747 186.452 165.501 186.452ZM177.834 191.674H178.982V195.048H177.834V191.674ZM181.894 191.674H183.042V195.048H181.894V191.674ZM174.712 194.544H186.178V195.51H174.712V194.544ZM179.836 185.92H180.816V186.704C180.816 189.308 178.226 191.254 175.734 191.786L175.258 190.848C177.442 190.47 179.836 188.72 179.836 186.704V185.92ZM180.046 185.92H181.026V186.704C181.026 188.72 183.434 190.442 185.646 190.806L185.184 191.73C182.65 191.226 180.046 189.308 180.046 186.704V185.92ZM175.65 185.542H185.212V186.494H175.65V185.542ZM188.044 191.923C188.034 191.373 188.124 190.931 188.312 190.596C188.501 190.261 188.747 190.018 189.048 189.865C189.353 189.713 189.675 189.636 190.013 189.636C190.351 189.636 190.659 189.711 190.938 189.86C191.219 190.006 191.541 190.236 191.902 190.551C192.147 190.763 192.343 190.912 192.489 190.999C192.638 191.085 192.8 191.128 192.976 191.128C193.261 191.128 193.486 191.025 193.652 190.82C193.818 190.611 193.897 190.309 193.891 189.915H194.964C194.974 190.465 194.885 190.907 194.696 191.242C194.51 191.577 194.265 191.821 193.96 191.973C193.655 192.125 193.334 192.202 192.996 192.202C192.658 192.202 192.349 192.129 192.071 191.983C191.793 191.834 191.471 191.602 191.107 191.287C190.865 191.075 190.669 190.926 190.52 190.839C190.371 190.753 190.208 190.71 190.033 190.71C189.764 190.71 189.542 190.805 189.366 190.994C189.194 191.179 189.111 191.489 189.118 191.923H188.044ZM198.744 185.818L198.645 193.136H197.491L197.392 185.818H198.744ZM198.068 196.08C197.823 196.08 197.612 195.992 197.437 195.816C197.261 195.64 197.173 195.43 197.173 195.185C197.173 194.939 197.261 194.729 197.437 194.553C197.612 194.378 197.823 194.29 198.068 194.29C198.313 194.29 198.524 194.378 198.699 194.553C198.875 194.729 198.963 194.939 198.963 195.185C198.963 195.347 198.921 195.496 198.839 195.632C198.759 195.768 198.651 195.877 198.515 195.96C198.383 196.04 198.234 196.08 198.068 196.08Z" fill="black"/>
</g>
<defs>
<clipPath id="clip0_3_2">
<rect width="267" height="230.8" fill="white" transform="translate(267 230.8) rotate(-180)"/>
</clipPath>
</defs>
</svg>
